<?xml version="1.0" encoding="UTF-8" standalone="no"?>
<!-- Created with Inkscape (http://www.inkscape.org/) -->

<svg
   xmlns:dc="http://purl.org/dc/elements/1.1/"
   xmlns:cc="http://creativecommons.org/ns#"
   xmlns:rdf="http://www.w3.org/1999/02/22-rdf-syntax-ns#"
   xmlns:svg="http://www.w3.org/2000/svg"
   xmlns="http://www.w3.org/2000/svg"
   xmlns:sodipodi="http://sodipodi.sourceforge.net/DTD/sodipodi-0.dtd"
   xmlns:inkscape="http://www.inkscape.org/namespaces/inkscape"
   width="22px"
   height="22px"
   viewBox="0 0 22 22"
   version="1.1"
   id="SVGRoot"
   inkscape:version="0.92.3 (2405546, 2018-03-11)"
   sodipodi:docname="org.cattus.icon32.svg">
  <sodipodi:namedview
     id="base"
     pagecolor="#ffffff"
     bordercolor="#666666"
     borderopacity="1.0"
     inkscape:pageopacity="0.0"
     inkscape:pageshadow="2"
     inkscape:zoom="4.1140758"
     inkscape:cx="17.999392"
     inkscape:cy="7.9964534"
     inkscape:document-units="px"
     inkscape:current-layer="layer1"
     showgrid="false"
     inkscape:window-width="1366"
     inkscape:window-height="717"
     inkscape:window-x="0"
     inkscape:window-y="19"
     inkscape:window-maximized="1"
     inkscape:grid-bbox="true" />
  <defs
     id="defs2972" />
  <metadata
     id="metadata2975">
    <rdf:RDF>
      <cc:Work
         rdf:about="">
        <dc:format>image/svg+xml</dc:format>
        <dc:type
           rdf:resource="http://purl.org/dc/dcmitype/StillImage" />
        <dc:title></dc:title>
      </cc:Work>
    </rdf:RDF>
  </metadata>
  <g
     id="layer1"
     inkscape:groupmode="layer"
     inkscape:label="Layer 1">
    <g
       id="g3598">
      <path
         d="m 18.378102,2.4511246 c -0.100449,-0.58084 -0.576516,-0.6454639 -0.925565,-0.2537434 -0.687436,0.7715164 -1.341448,1.3748975 -1.840164,2.3048224 -0.208142,0.3882961 -0.07459,0.7591404 0.176638,0.9712391 0.01591,0.07181 0.03994,0.1410711 0.07649,0.2030459 0.504856,0.8553583 1.172557,1.5467807 1.99949,2.0161685 0.478885,0.2718626 0.889431,-0.00842 0.906136,-0.6122182 0.0441,-1.5924092 -0.122689,-3.0644075 -0.39303,-4.6293143"
         style="fill:#efba3d;fill-opacity:1;fill-rule:nonzero;stroke:none;stroke-width:0.01054446"
         id="path192"
         inkscape:connector-curvature="0" />
      <path
         d="M 7.4221725,5.6093234 C 6.9891754,4.9217635 6.5561854,4.2343181 6.1232976,3.5467581 5.7399265,2.9380721 5.4327434,2.2504043 4.7782207,1.9701494 4.4318816,1.8217848 4.1920147,2.209973 4.1140453,2.5905374 3.8225966,4.0129373 3.5437639,5.4912316 3.4839304,6.9476522 3.4556002,7.6369782 4.0196122,7.7356296 4.4461841,7.4721593 4.646894,7.3483244 4.8787725,7.2961844 5.1090597,7.3015972 5.8118873,7.3181794 6.6424418,6.9456636 7.1694421,6.6672827 7.4972508,6.4941794 7.6280958,5.9363122 7.4221725,5.6093234"
         style="fill:#efba3d;fill-opacity:1;fill-rule:nonzero;stroke:none;stroke-width:0.01054446"
         id="path194"
         inkscape:connector-curvature="0" />
      <path
         d="M 20.620058,13.395832 C 20.370343,10.284583 18.92513,7.0249825 17.151196,5.7211193 13.462012,3.0093289 6.7302092,3.6397742 4.3394484,6.0853306 2.3148341,8.1564028 0.46485751,13.469624 1.8778363,16.440355 c 0.9969343,2.095925 4.4130379,3.57455 6.3723719,3.830396 4.3216638,0.564277 10.2094198,0.115881 11.9972478,-4.257802 0.335256,-0.820011 0.444161,-1.724859 0.372602,-2.617117"
         style="fill:#efba3d;fill-opacity:1;fill-rule:nonzero;stroke:none;stroke-width:0.01054446"
         id="path196"
         inkscape:connector-curvature="0" />
      <path
         d="m 13.237362,13.383348 c 0.46932,0.478219 -0.11011,1.233382 -0.498015,1.47454 -0.662868,0.412159 -1.442095,-0.228782 -1.485976,-1.001956 -0.148258,0.02197 -0.296515,0.04408 -0.444869,0.06606 0.05637,0.409732 -0.229884,0.62537 -0.490064,0.833269 C 9.9201733,15.07352 9.5012745,15.067669 9.0823689,14.796381 8.5498416,14.451485 8.4472749,13.878923 8.7281885,13.302384 8.8658744,13.01981 8.4748584,12.76871 8.3370704,13.051404 c -0.46299,0.950249 -0.1286319,1.988659 0.831059,2.35033 0.9132836,0.344225 2.2379246,-0.441319 2.0771886,-1.611849 -0.03825,-0.277936 -0.460669,-0.211324 -0.444869,0.06606 0.06228,1.096517 1.082475,1.974632 2.050519,1.489788 0.700615,-0.350851 1.442803,-1.563687 0.706654,-2.313882 -0.213679,-0.217734 -0.534749,0.132894 -0.32026,0.351511"
         style="fill:#4b2618;fill-opacity:1;fill-rule:nonzero;stroke:none;stroke-width:0.01054446"
         id="path198"
         inkscape:connector-curvature="0" />
      <path
         d="m 5.1343218,10.367879 c -0.1620497,0.456789 -0.2049229,1.086129 -0.039276,1.550097 0.1104159,0.309092 0.3806543,0.513574 0.6479804,0.273743 0.1029612,-0.09235 0.1688915,-0.225243 0.218306,-0.360787 0.119067,-0.32622 0.15339,-0.688112 0.1032673,-1.034764 C 6.0274359,10.539439 5.9506646,9.9250093 5.6549589,9.9002639 5.5669912,9.892847 5.2632349,10.004106 5.1343035,10.367879"
         style="fill:#4b2618;fill-opacity:1;fill-rule:nonzero;stroke:none;stroke-width:0.01054446"
         id="path200"
         inkscape:connector-curvature="0" />
      <path
         d="m 4.9159136,10.301711 c -0.2052215,0.641486 -0.27838,1.557937 0.2021049,2.077698 0.5269924,0.570237 1.0245035,-0.283685 1.142965,-0.769527 C 6.3744146,11.145031 6.3445217,10.211452 5.9986954,9.8388415 5.6191429,9.4299998 5.1286848,9.807363 4.9387592,10.242386 c -0.1256096,0.287548 0.2649088,0.539862 0.391023,0.250878 0.089578,-0.205142 0.2882581,-0.4974427 0.4086332,-0.165924 0.085854,0.236514 0.1120221,0.517436 0.1219883,0.76853 0.00731,0.179729 -0.029572,0.355158 -0.071552,0.527156 -0.029281,0.259271 -0.1791491,0.352617 -0.4495928,0.279817 -0.045926,-0.1013 -0.077805,-0.207461 -0.096025,-0.318368 -0.082727,-0.376478 -0.0044,-0.793942 0.1094085,-1.150536 0.097026,-0.303349 -0.340593,-0.432597 -0.4367135,-0.132228"
         style="fill:#4b2618;fill-opacity:1;fill-rule:nonzero;stroke:none;stroke-width:0.01054446"
         id="path202"
         inkscape:connector-curvature="0" />
      <path
         d="m 15.690773,10.051716 c -0.219611,0.365877 -0.198876,0.927828 -0.146242,1.324961 0.02774,0.209672 0.07184,0.424981 0.189422,0.593001 0.117557,0.167913 0.289872,0.384319 0.471847,0.313729 0.195964,-0.07601 0.327708,-0.42663 0.372098,-0.649447 0.08817,-0.4432 0.06096,-0.913242 -0.07729,-1.340755 -0.04308,-0.132788 -0.09844,-0.264576 -0.189123,-0.364441 -0.1396,-0.1536634 -0.332037,-0.1898945 -0.48583,-0.04584 -0.05271,0.049279 -0.09733,0.1061606 -0.134875,0.168796"
         style="fill:#4b2618;fill-opacity:1;fill-rule:nonzero;stroke:none;stroke-width:0.01054446"
         id="path204"
         inkscape:connector-curvature="0" />
      <path
         d="m 15.495219,9.926223 c -0.271348,0.531355 -0.335468,1.494647 -0.03213,2.03484 0.297218,0.529145 0.764428,0.811833 1.153035,0.230434 0.36465,-0.545714 0.312819,-1.58821 0.03198,-2.155023 -0.285039,-0.575325 -0.794925,-0.6284559 -1.152931,-0.110251 -0.176646,0.255623 0.216998,0.502855 0.391015,0.250878 0.339995,-0.4919221 0.498314,0.632657 0.5115,0.780569 0.03009,0.337593 -0.02307,0.68657 -0.17271,0.982955 -0.221833,0.03647 -0.355495,-0.06949 -0.401091,-0.317929 -0.05636,-0.15576 -0.06461,-0.336156 -0.079,-0.501198 -0.0284,-0.325445 -0.0066,-0.65519 0.141306,-0.944397 C 16.029218,9.89717 15.637896,9.6466283 15.49518,9.926223"
         style="fill:#4b2618;fill-opacity:1;fill-rule:nonzero;stroke:none;stroke-width:0.01054446"
         id="path206"
         inkscape:connector-curvature="0" />
      <path
         d="M 20.846519,13.395832 C 20.659514,11.27107 20.026427,9.1835432 18.937506,7.4080882 c 0,0.083626 0,0.1672455 0,0.2508717 0.08646,-0.1701172 0.06096,-0.4155828 0.05986,-0.6018307 -0.0029,-0.4868396 -0.03381,-0.9740028 -0.06483,-1.4594067 C 18.861356,4.4824261 18.806024,3.3105746 18.559433,2.2219043 18.462911,1.7957182 18.130466,1.517553 17.738341,1.6392915 17.35316,1.7589269 17.004505,2.3744616 16.757418,2.6892967 16.410779,3.1310607 16.074611,3.5831045 15.745896,4.0411071 15.593009,4.2539809 15.38537,4.4816577 15.2968,4.7390478 15.3897,4.6812791 15.482594,4.6233894 15.575392,4.5654996 12.804829,3.4278912 9.5552875,3.410109 6.7424519,4.3859924 6.8276982,4.4240777 6.9129488,4.4621031 6.9981976,4.500215 6.6078836,3.8804877 6.2343766,3.2455125 5.834497,2.63351 5.6059183,2.2834341 5.1064002,1.6408418 4.6533834,1.6899957 3.7357836,1.789638 3.7320093,3.3881273 3.6131234,4.1446185 3.4639962,5.0929929 3.3161698,6.049099 3.2327826,7.0077463 3.225473,7.0918172 3.2146063,7.1840582 3.2330891,7.2675697 3.2019143,7.126721 2.8596331,7.7514233 2.8101745,7.8409004 2.4967855,8.4078273 2.2385572,9.0083368 2.0049844,9.6191192 1.1852796,11.762325 0.64189575,14.652416 1.7918116,16.776733 c 1.042932,1.926792 3.4177541,2.965534 5.2952561,3.501198 1.3342062,0.380678 2.7677436,0.435029 4.1395863,0.435912 1.481755,6.74e-4 2.975485,-0.165486 4.409031,-0.586482 2.877144,-0.844977 5.443288,-3.188681 5.210789,-6.731529 -0.02095,-0.317821 -0.473957,-0.320032 -0.452915,0 0.391818,5.97007 -6.360814,6.990692 -10.362109,6.790188 C 7.8090247,20.074669 5.6993228,19.525308 3.8012824,18.20189 2.8521565,17.540073 2.0926497,16.680516 1.7803633,15.473969 1.4455456,14.180379 1.6203135,12.755329 1.914428,11.475436 2.1990428,10.237196 2.6711527,9.0507565 3.2738223,7.9605426 3.4341565,7.6704529 3.6690653,7.3414757 3.6785419,7.1104825 3.693143,6.7534502 3.7507546,6.3945372 3.7964934,6.0412526 3.9291412,5.0159929 4.0818455,3.992061 4.269698,2.9771821 4.3168652,2.7223265 4.3497043,2.4683607 4.5055993,2.2578056 4.7405371,1.9402068 5.3346724,2.7290673 5.443474,2.8843885 c 0.4161829,0.5943214 0.7751972,1.2499503 1.1637015,1.8666983 0.056581,0.089922 0.1538941,0.1495781 0.2557457,0.1142293 2.7430875,-0.9516907 5.8907778,-0.9295945 8.5920958,0.1795071 0.123295,0.050691 0.238136,-0.056016 0.278598,-0.1735415 0.02549,-0.074351 0.24689,-0.3583602 0.33254,-0.4786631 0.247701,-0.3478648 0.503345,-0.6891035 0.761311,-1.0279156 0.235113,-0.3086469 0.475162,-0.6128787 0.722052,-0.9102619 0.195161,-0.2349636 0.506767,-0.3933787 0.610138,0.062757 0.04089,0.1806125 0.05855,0.3713902 0.08364,0.5552114 0.120177,0.8802184 0.188217,1.7708174 0.244881,2.6584372 0.02445,0.3831056 0.04308,0.7667641 0.05322,1.150645 0.0029,0.1166492 0.0146,0.5076013 0.0051,0.5266035 -0.03775,0.074236 -0.04512,0.1773029 0,0.2508717 1.043027,1.7004505 1.667855,3.6992751 1.847209,5.7368731 0.02774,0.316048 0.481003,0.319035 0.452923,0"
         style="fill:#4b2618;fill-opacity:1;fill-rule:nonzero;stroke:none;stroke-width:0.01054446"
         id="path208"
         inkscape:connector-curvature="0" />
      <path
         d="M 3.5631117,7.4565813 C 4.1383078,6.6538079 4.8374042,6.0078925 5.6589048,5.5272409 5.9166663,5.3763417 5.6878955,4.947284 5.4302247,5.0979608 4.5780946,5.5966171 3.8399734,6.2716931 3.2428889,7.1050697 3.0645058,7.3540675 3.3826847,7.7084508 3.5631117,7.4565813"
         style="fill:#4b2618;fill-opacity:1;fill-rule:nonzero;stroke:none;stroke-width:0.01054446"
         id="path210"
         inkscape:connector-curvature="0" />
      <path
         d="M 18.90208,7.3577143 C 18.341969,6.5644386 17.622327,5.934654 16.84713,5.4104771 16.597722,5.2417889 16.370457,5.6718509 16.618559,5.8396492 17.363463,6.3434959 18.043847,6.947214 18.581813,7.709226 18.760466,7.9624165 19.078616,7.6078175 18.90208,7.3577143"
         style="fill:#4b2618;fill-opacity:1;fill-rule:nonzero;stroke:none;stroke-width:0.01054446"
         id="path212"
         inkscape:connector-curvature="0" />
      <path
         d="m 10.035313,12.875524 c -0.056074,-0.07899 -0.03161,-0.149247 0.05775,-0.169463 0.61376,-0.138967 1.907298,0.0054 1.957319,0.150462 0.05001,0.145155 -0.07397,0.161172 -0.184385,0.258164 -0.166372,0.14604 -0.337782,0.28523 -0.513917,0.416912 -0.08958,0.06707 -0.187508,0.134661 -0.296005,0.134108 -0.07097,-2.5e-4 -0.138897,-0.03006 -0.203512,-0.06222 -0.291282,-0.145371 -0.817274,-0.727985 -0.817274,-0.727985"
         style="fill:#4b2618;fill-opacity:1;fill-rule:nonzero;stroke:none;stroke-width:0.01054446"
         id="path214"
         inkscape:connector-curvature="0" />
      <path
         d="m 10.230773,12.750032 c -0.05505,0.167798 -0.01861,0.223146 0.109307,0.166362 0.09481,-0.01106 0.190532,-0.01347 0.285747,-0.01678 0.169489,-0.0061 0.339184,0.002 0.508375,0.01206 0.163554,0.0095 0.327005,0.02784 0.488953,0.05466 0.06841,0.0114 0.135875,0.02764 0.203207,0.0451 0.224446,0.05844 -0.199586,-0.02352 0.0077,-0.17222 -0.301248,0.216075 -0.63319,0.71672 -1.00428,0.463638 -0.233704,-0.159515 -0.440437,-0.389846 -0.634386,-0.603051 -0.2065358,-0.227124 -0.5267957,0.124387 -0.3202669,0.351511 0.2915809,0.320579 0.7307099,0.862983 1.1809169,0.862983 0.323882,0 0.632473,-0.332065 0.869602,-0.536985 0.155602,-0.134553 0.516632,-0.357699 0.320266,-0.646245 -0.245882,-0.360902 -0.957275,-0.311741 -1.315477,-0.326658 -0.358015,-0.01489 -1.3639953,-0.08684 -1.090733,0.596532 0.1170526,0.292968 0.507265,0.03977 0.391015,-0.250872"
         style="fill:#4b2618;fill-opacity:1;fill-rule:nonzero;stroke:none;stroke-width:0.01054446"
         id="path216"
         inkscape:connector-curvature="0" />
      <path
         d="m 16.801542,13.845436 c 0.53555,-0.10008 1.071099,-0.200168 1.606656,-0.300254 0.143724,-0.02683 0.08254,-0.266336 -0.0603,-0.239602 -0.53555,0.10008 -1.071101,0.20006 -1.606657,0.30014 -0.143724,0.02683 -0.08254,0.266342 0.0603,0.239716"
         style="fill:#4b2618;fill-opacity:1;fill-rule:nonzero;stroke:none;stroke-width:0.01054446"
         id="path218"
         inkscape:connector-curvature="0" />
      <path
         d="m 16.739036,14.931127 c 0.465196,0.07755 0.919928,0.197073 1.36671,0.359243 0.139095,0.05036 0.198176,-0.189672 0.06016,-0.239716 -0.446782,-0.162055 -0.901515,-0.281582 -1.366616,-0.359243 -0.142819,-0.02372 -0.204214,0.215631 -0.0603,0.239716"
         style="fill:#4b2618;fill-opacity:1;fill-rule:nonzero;stroke:none;stroke-width:0.01054446"
         id="path220"
         inkscape:connector-curvature="0" />
      <path
         d="m 16.703807,16.099669 c 0.27719,0.209005 0.546926,0.428949 0.808615,0.660819 0.112526,0.09965 0.273765,-0.07501 0.16013,-0.175753 -0.276679,-0.245243 -0.561315,-0.478663 -0.85451,-0.699598 -0.120674,-0.09103 -0.233806,0.124495 -0.114235,0.214532"
         style="fill:#4b2618;fill-opacity:1;fill-rule:nonzero;stroke:none;stroke-width:0.01054446"
         id="path222"
         inkscape:connector-curvature="0" />
      <path
         d="m 3.3072779,13.545182 c 0.512727,0.16206 1.0302427,0.300698 1.5532785,0.41625 0.1426209,0.03148 0.2033087,-0.208014 0.060165,-0.239608 C 4.3976927,13.606273 3.880177,13.467528 3.367458,13.30558 3.226822,13.26117 3.1671787,13.500995 3.307222,13.545182"
         style="fill:#4b2618;fill-opacity:1;fill-rule:nonzero;stroke:none;stroke-width:0.01054446"
         id="path224"
         inkscape:connector-curvature="0" />
      <path
         d="m 3.4198849,15.404262 c 0.4836304,-0.157747 0.9672909,-0.315388 1.4509371,-0.473135 0.1395986,-0.0455 0.080112,-0.285452 -0.060165,-0.239716 -0.4836464,0.157748 -0.9673138,0.315496 -1.4509812,0.473136 -0.1396497,0.0455 -0.080129,0.285452 0.060236,0.239715"
         style="fill:#4b2618;fill-opacity:1;fill-rule:nonzero;stroke:none;stroke-width:0.01054446"
         id="path226"
         inkscape:connector-curvature="0" />
      <path
         d="m 4.8164714,16.94321 c 0.2926833,-0.280375 0.6068095,-0.525612 0.9429782,-0.739039 0.1263184,-0.08021 0.012409,-0.295064 -0.1142344,-0.21464 -0.3526763,0.223922 -0.681997,0.483853 -0.9888446,0.77792 -0.1102036,0.1055 0.050593,0.280592 0.1601008,0.175759"
         style="fill:#4b2618;fill-opacity:1;fill-rule:nonzero;stroke:none;stroke-width:0.01054446"
         id="path228"
         inkscape:connector-curvature="0" />
      <path
         d="M 5.8033302,7.5301569 C 6.0957211,7.4123955 6.3882063,7.2946339 6.6805903,7.1768725 6.952443,7.0674022 6.8349811,6.5868585 6.5602153,6.6975488 6.2677301,6.8153104 5.9753391,6.9330718 5.6829551,7.0508334 5.4111025,7.1603036 5.5284622,7.6408474 5.8033302,7.5301569"
         style="fill:#4b2618;fill-opacity:1;fill-rule:nonzero;stroke:none;stroke-width:0.01054446"
         id="path230"
         inkscape:connector-curvature="0" />
      <path
         d="m 15.215511,7.109822 c 0.212771,0.047051 0.409136,0.1391904 0.576421,0.2934061 0.22203,0.2045894 0.544202,-0.1451561 0.320259,-0.3515117 C 15.885533,6.8428195 15.627268,6.6948997 15.335892,6.6304983 15.050752,6.5674046 14.929267,7.0465192 15.215511,7.109822"
         style="fill:#4b2618;fill-opacity:1;fill-rule:nonzero;stroke:none;stroke-width:0.01054446"
         id="path232"
         inkscape:connector-curvature="0" />
    </g>
  </g>
</svg>
