<?xml version="1.0" encoding="UTF-8" standalone="no"?>
<!-- Created with Inkscape (http://www.inkscape.org/) -->

<svg
   xmlns:dc="http://purl.org/dc/elements/1.1/"
   xmlns:cc="http://creativecommons.org/ns#"
   xmlns:rdf="http://www.w3.org/1999/02/22-rdf-syntax-ns#"
   xmlns:svg="http://www.w3.org/2000/svg"
   xmlns="http://www.w3.org/2000/svg"
   xmlns:sodipodi="http://sodipodi.sourceforge.net/DTD/sodipodi-0.dtd"
   xmlns:inkscape="http://www.inkscape.org/namespaces/inkscape"
   width="128px"
   height="128px"
   viewBox="0 0 128 128"
   version="1.1"
   id="SVGRoot"
   inkscape:version="0.92.3 (2405546, 2018-03-11)"
   sodipodi:docname="org.cattus.logo.svg">
  <sodipodi:namedview
     id="base"
     pagecolor="#ffffff"
     bordercolor="#666666"
     borderopacity="1.0"
     inkscape:pageopacity="0.0"
     inkscape:pageshadow="2"
     inkscape:zoom="1"
     inkscape:cx="49.797511"
     inkscape:cy="199.00061"
     inkscape:document-units="px"
     inkscape:current-layer="layer1"
     showgrid="false"
     inkscape:window-width="1366"
     inkscape:window-height="717"
     inkscape:window-x="0"
     inkscape:window-y="19"
     inkscape:window-maximized="1"
     inkscape:grid-bbox="true" />
  <defs
     id="defs1620" />
  <metadata
     id="metadata1623">
    <rdf:RDF>
      <cc:Work
         rdf:about="">
        <dc:format>image/svg+xml</dc:format>
        <dc:type
           rdf:resource="http://purl.org/dc/dcmitype/StillImage" />
        <dc:title></dc:title>
      </cc:Work>
    </rdf:RDF>
  </metadata>
  <g
     id="layer1"
     inkscape:groupmode="layer"
     inkscape:label="Layer 1">
    <g
       id="g2275"
       transform="matrix(0.93862066,0,0,0.96049693,3.0510344,2.0479484)">
      <path
         d="m 114.76308,6.783263 c -0.66364,-3.8484957 -3.80898,-4.2766768 -6.1151,-1.681247 -4.54179,5.11181 -8.862796,9.10962 -12.157751,15.27102 -1.375166,2.572739 -0.492751,5.029833 1.167024,6.435141 0.105125,0.475756 0.264006,0.934677 0.505395,1.34529 3.335502,5.667347 7.746962,10.248506 13.210402,13.358484 3.16394,1.801283 5.87638,-0.05563 5.98676,-4.056365 0.29126,-10.550794 -0.8106,-20.303782 -2.59673,-30.672323"
         style="fill:#efba3d;fill-opacity:1;fill-rule:nonzero;stroke:none;stroke-width:0.06976507"
         id="path192"
         inkscape:connector-curvature="0" />
      <path
         d="M 42.378524,27.708454 C 39.517799,23.152911 36.657074,18.598102 33.797017,14.042559 31.264122,10.009617 29.234619,5.4533437 24.910285,3.5964336 22.622033,2.6134493 21.037261,5.1854562 20.522116,7.7069599 18.596543,17.131311 16.754357,26.926019 16.359027,36.575804 c -0.186988,4.567253 3.539201,5.220868 6.357501,3.475211 1.326093,-0.820495 2.858068,-1.165967 4.37953,-1.130103 4.643524,0.109794 10.130902,-2.358283 13.612705,-4.20275 2.165825,-1.146938 3.030294,-4.843192 1.669761,-7.009708"
         style="fill:#efba3d;fill-opacity:1;fill-rule:nonzero;stroke:none;stroke-width:0.06976507"
         id="path194"
         inkscape:connector-curvature="0" />
      <path
         d="M 129.57541,79.299386 C 127.92561,58.68526 118.37723,37.088156 106.65703,28.449167 82.283032,10.481712 37.80682,14.658846 22.011327,30.862346 8.6349439,44.584599 -3.5876352,79.788306 5.747754,99.471411 c 6.586648,13.886939 29.156443,23.683849 42.101525,25.378989 28.552708,3.73871 67.452431,0.7678 79.264391,-28.210828 2.21504,-5.433131 2.93453,-11.428382 2.46174,-17.340186"
         style="fill:#efba3d;fill-opacity:1;fill-rule:nonzero;stroke:none;stroke-width:0.06976507"
         id="path196"
         inkscape:connector-curvature="0" />
      <path
         d="m 80.798807,79.216673 c 3.100779,3.16853 -0.72749,8.172011 -3.290307,9.769816 -4.379519,2.730835 -9.52777,-1.515827 -9.817694,-6.638614 -0.979509,0.145653 -1.959018,0.292041 -2.939194,0.437695 0.372385,2.714735 -1.518793,4.143467 -3.237757,5.520962 -2.631312,2.108689 -5.398935,2.069891 -8.166569,0.272281 -3.518386,-2.285096 -4.195995,-6.078698 -2.340042,-9.898647 0.909679,-1.872279 -1.673741,-3.535963 -2.5841,-1.66295 -3.058881,6.296071 -0.849835,13.176237 5.490703,15.572572 6.03399,2.280701 14.785734,-2.924064 13.723765,-10.679608 -0.252686,-1.841537 -3.043593,-1.400182 -2.939194,0.437695 0.411613,7.265155 7.151812,13.083277 13.547546,9.87082 4.628891,-2.324605 9.532417,-10.360486 4.668787,-15.331033 -1.411737,-1.442639 -3.533007,0.880508 -2.115944,2.329011"
         style="fill:#4b2618;fill-opacity:1;fill-rule:nonzero;stroke:none;stroke-width:0.06976507"
         id="path198"
         inkscape:connector-curvature="0" />
      <path
         d="m 27.26297,59.237135 c -1.070609,3.02654 -1.353895,7.196354 -0.259346,10.270467 0.72948,2.047941 2.514937,3.402741 4.281113,1.813726 0.680266,-0.611897 1.115831,-1.49241 1.442326,-2.39049 0.786668,-2.161392 1.013423,-4.5592 0.682269,-6.856002 -0.245369,-1.70101 -0.752754,-5.772013 -2.706445,-5.935968 -0.581194,-0.04903 -2.588091,0.68802 -3.439917,3.098267"
         style="fill:#4b2618;fill-opacity:1;fill-rule:nonzero;stroke:none;stroke-width:0.06976507"
         id="path200"
         inkscape:connector-curvature="0" />
      <path
         d="m 25.819965,58.798711 c -1.355886,4.250323 -1.83919,10.322431 1.33527,13.766163 3.481815,3.778225 6.768786,-1.879597 7.551461,-5.098631 0.749429,-3.07997 0.551928,-9.265524 -1.732917,-11.734327 -2.507621,-2.708879 -5.748047,-0.2086 -7.002859,2.673749 -0.829887,1.905213 1.750208,3.576948 2.583433,1.662215 0.591823,-1.359197 1.904488,-3.295888 2.699795,-1.099362 0.567228,1.567067 0.740122,3.428365 0.805948,5.092047 0.04718,1.190851 -0.1955,2.353162 -0.472792,3.49278 -0.193509,1.717841 -1.183659,2.336325 -2.97045,1.853981 -0.303223,-0.671184 -0.514022,-1.374568 -0.634389,-2.10943 -0.546601,-2.494422 -0.03126,-5.260388 0.722832,-7.623063 0.641037,-2.009888 -2.250277,-2.866248 -2.885332,-0.876122"
         style="fill:#4b2618;fill-opacity:1;fill-rule:nonzero;stroke:none;stroke-width:0.06976507"
         id="path202"
         inkscape:connector-curvature="0" />
      <path
         d="m 97.008243,57.142347 c -1.450977,2.424157 -1.313988,6.147495 -0.96621,8.778786 0.183535,1.389208 0.474793,2.815744 1.251487,3.929012 0.776693,1.112533 1.91513,2.546389 3.1174,2.078683 1.29471,-0.503568 2.16516,-2.826719 2.45842,-4.303022 0.58252,-2.936513 0.40297,-6.05088 -0.51071,-8.883455 -0.28461,-0.879784 -0.65034,-1.752974 -1.24948,-2.414644 -0.92233,-1.018115 -2.193761,-1.258189 -3.209841,-0.303751 -0.348445,0.326444 -0.643028,0.703386 -0.891066,1.118391"
         style="fill:#4b2618;fill-opacity:1;fill-rule:nonzero;stroke:none;stroke-width:0.06976507"
         id="path204"
         inkscape:connector-curvature="0" />
      <path
         d="m 95.716193,56.310875 c -1.792773,3.52059 -2.216362,9.903034 -0.212122,13.482181 1.963665,3.505949 5.050489,5.378963 7.617959,1.526806 2.4092,-3.615743 2.06674,-10.522977 0.21146,-14.278523 -1.8832,-3.811896 -5.25198,-4.163956 -7.617297,-0.730464 -1.167035,1.693689 1.433688,3.331751 2.583433,1.662217 2.246284,-3.259292 3.292294,4.191772 3.379404,5.171827 0.19883,2.236785 -0.15228,4.548956 -1.1411,6.512727 -1.465603,0.241537 -2.348685,-0.460387 -2.649929,-2.106497 -0.372385,-1.032023 -0.426914,-2.227272 -0.522006,-3.320778 -0.187515,-2.15627 -0.04191,-4.341085 0.933631,-6.257279 0.944927,-1.854716 -1.640495,-3.514738 -2.583433,-1.662217"
         style="fill:#4b2618;fill-opacity:1;fill-rule:nonzero;stroke:none;stroke-width:0.06976507"
         id="path206"
         inkscape:connector-curvature="0" />
      <path
         d="m 131.07161,79.299386 c -1.23553,-14.077975 -5.41822,-27.909287 -12.61259,-39.672892 0,0.554073 0,1.108145 0,1.662218 0.57121,-1.127175 0.40297,-2.753527 0.39566,-3.987564 -0.0193,-3.225622 -0.22343,-6.45344 -0.42825,-9.669548 -0.47013,-7.38958 -0.83587,-15.153909 -2.46506,-22.3670953 -0.63771,-2.8237913 -2.83412,-4.6667948 -5.42487,-3.8602071 -2.54486,0.7926821 -4.84833,4.8710047 -6.48084,6.9570097 -2.29018,2.9269937 -4.511197,5.9220587 -6.683004,8.9566467 -1.01011,1.410432 -2.381951,2.918942 -2.967126,4.624342 0.613774,-0.382799 1.227547,-0.766332 1.840653,-1.149864 C 77.941407,13.255001 56.472016,13.13716 37.887946,19.603044 38.451171,19.85556 39.014407,20.107345 39.577643,20.35986 36.99887,16.253724 34.531145,12.046582 31.889204,7.9916814 30.379038,5.6721913 27.078768,1.4145448 24.085712,1.7402543 18.023263,2.4004564 17.998328,12.991506 17.212855,18.003773 c -0.985292,6.283632 -1.961933,12.6185 -2.51287,18.970201 -0.04835,0.557001 -0.120028,1.168163 0.002,1.721503 -0.206009,-0.933212 -2.467391,3.205861 -2.79416,3.798726 -2.0705344,3.756272 -3.776595,7.735052 -5.3198025,11.7819 -5.4156927,14.200206 -9.0057626,33.348991 -1.4084185,47.424037 6.890541,12.76636 22.580693,19.6487 34.985143,23.19784 8.814924,2.52224 18.286163,2.88235 27.34978,2.88821 9.789762,0.007 19.658672,-1.09644 29.129911,-3.88583 19.008982,-5.59855 35.963202,-21.1272 34.427102,-44.600974 -0.13831,-2.105774 -3.13137,-2.120417 -2.99239,0 C 130.66789,118.85515 86.054033,125.61747 59.617936,124.28902 44.93461,123.55123 30.996066,119.91133 18.45596,111.14279 12.185176,106.7578 7.1672048,101.06263 5.1039862,93.068472 2.8918792,84.497553 4.0465423,75.055638 5.9897339,66.575481 7.8701515,58.371261 10.989284,50.510316 14.971091,43.286884 c 1.059299,-1.922052 2.611292,-4.101745 2.673934,-5.632213 0.09658,-2.365603 0.477182,-4.743649 0.77928,-7.084365 0.876375,-6.793057 1.885267,-13.57733 3.126381,-20.301585 0.311745,-1.6885661 0.528585,-3.3712773 1.558573,-4.7663384 1.552251,-2.1043032 5.477603,3.1224196 6.19643,4.1515154 2.749677,3.937792 5.121643,8.281805 7.688452,12.368179 0.373719,0.595792 1.016747,0.991035 1.689697,0.756818 18.123243,-6.305591 38.919684,-6.159204 56.766957,1.189388 0.814599,0.335957 1.573334,-0.371089 1.840653,-1.149865 0.168234,-0.492589 1.631188,-2.374385 2.197081,-3.171459 1.636501,-2.304852 3.325541,-4.565789 5.029871,-6.810622 1.55338,-2.045017 3.13934,-4.0607564 4.77053,-6.0311164 1.28939,-1.5568177 3.34815,-2.6064081 4.03109,0.4157374 0.26997,1.1967082 0.38702,2.4607534 0.55259,3.678688 0.79399,5.83203 1.24351,11.732862 1.61789,17.613932 0.16159,2.538339 0.2846,5.080336 0.35177,7.623799 0.0206,0.772919 0.0965,3.363226 0.0326,3.489117 -0.24938,0.491859 -0.29791,1.17475 0,1.662218 6.89114,11.266621 11.01931,24.510192 12.20429,38.010674 0.18353,2.094047 3.17791,2.113807 2.99239,0"
         style="fill:#4b2618;fill-opacity:1;fill-rule:nonzero;stroke:none;stroke-width:0.06976507"
         id="path208"
         inkscape:connector-curvature="0" />
      <path
         d="m 16.882169,39.947813 c 3.800267,-5.318947 8.419114,-9.59855 13.846648,-12.783184 1.703008,-0.99982 0.191519,-3.842641 -1.510821,-2.844287 -5.629952,3.303939 -10.506611,7.776773 -14.451513,13.298464 -1.178536,1.649773 0.923645,3.99781 2.115686,2.329007"
         style="fill:#4b2618;fill-opacity:1;fill-rule:nonzero;stroke:none;stroke-width:0.06976507"
         id="path210"
         inkscape:connector-curvature="0" />
      <path
         d="m 118.22495,39.292733 c -3.70059,-5.256 -8.45516,-9.428741 -13.5768,-12.901756 -1.64781,-1.11766 -3.14933,1.73175 -1.51016,2.843554 4.92148,3.338339 9.41671,7.338346 12.971,12.387209 1.18034,1.677587 3.28233,-0.671914 2.11596,-2.329007"
         style="fill:#4b2618;fill-opacity:1;fill-rule:nonzero;stroke:none;stroke-width:0.06976507"
         id="path212"
         inkscape:connector-curvature="0" />
      <path
         d="m 59.64328,75.851988 c -0.370394,-0.523346 -0.208809,-0.988845 0.381692,-1.122782 4.055025,-0.920775 12.601284,0.03439 12.931783,0.996877 0.330487,0.961763 -0.48876,1.067896 -1.21824,1.710525 -1.099209,0.967616 -2.231663,1.889848 -3.395363,2.762312 -0.591835,0.444281 -1.238855,0.892224 -1.955693,0.888563 -0.468811,-0.0012 -0.917663,-0.199081 -1.344577,-0.412071 -1.924448,-0.963221 -5.399602,-4.823424 -5.399602,-4.823424"
         style="fill:#4b2618;fill-opacity:1;fill-rule:nonzero;stroke:none;stroke-width:0.06976507"
         id="path214"
         inkscape:connector-curvature="0" />
      <path
         d="m 60.934663,75.020501 c -0.363745,1.111812 -0.123024,1.478511 0.722164,1.102299 0.626405,-0.07321 1.258792,-0.0893 1.887865,-0.111216 1.119812,-0.038 2.240958,0.01469 3.35878,0.07974 1.080594,0.06295 2.16051,0.184451 3.230452,0.362304 0.452188,0.07543 0.897727,0.182982 1.342587,0.298628 1.482901,0.387193 -1.318647,-0.155901 0.05116,-1.141085 -1.990274,1.431658 -4.183364,4.748779 -6.635121,3.071921 -1.544068,-1.056903 -2.909939,-2.58299 -4.191336,-3.99561 -1.364536,-1.504857 -3.480492,0.824154 -2.115955,2.329 1.926438,2.124065 4.827715,5.717852 7.802157,5.717852 2.139883,0 4.178704,-2.200192 5.745389,-3.557915 1.028044,-0.89149 3.41332,-2.370001 2.115944,-4.2818 -1.624527,-2.391229 -6.324582,-2.065519 -8.691221,-2.164332 -2.365328,-0.09874 -9.011746,-0.575293 -7.206341,3.952441 0.773368,1.941072 3.351474,0.263492 2.583432,-1.662227"
         style="fill:#4b2618;fill-opacity:1;fill-rule:nonzero;stroke:none;stroke-width:0.06976507"
         id="path216"
         inkscape:connector-curvature="0" />
      <path
         d="m 104.34692,82.278336 c 3.53833,-0.663124 7.07666,-1.326259 10.615,-1.989383 0.94958,-0.177864 0.54528,-1.764688 -0.39833,-1.58757 -3.53833,0.663136 -7.07667,1.325536 -10.615,1.98866 -0.94959,0.177864 -0.54528,1.7647 0.39833,1.588293"
         style="fill:#4b2618;fill-opacity:1;fill-rule:nonzero;stroke:none;stroke-width:0.06976507"
         id="path218"
         inkscape:connector-curvature="0" />
      <path
         d="m 103.93397,89.47176 c 3.07351,0.513821 6.07786,1.305764 9.02969,2.380248 0.919,0.333753 1.30934,-1.256731 0.39766,-1.588293 -2.95183,-1.073749 -5.95618,-1.865692 -9.02904,-2.380248 -0.9436,-0.157358 -1.34923,1.428732 -0.39831,1.588293"
         style="fill:#4b2618;fill-opacity:1;fill-rule:nonzero;stroke:none;stroke-width:0.06976507"
         id="path220"
         inkscape:connector-curvature="0" />
      <path
         d="m 103.70122,97.214131 c 1.83134,1.384816 3.61348,2.842099 5.34241,4.378419 0.74345,0.6602 1.80873,-0.49699 1.05798,-1.1645 -1.82802,-1.624892 -3.70857,-3.171461 -5.64565,-4.635329 -0.7973,-0.603109 -1.54473,0.824888 -0.75474,1.42141"
         style="fill:#4b2618;fill-opacity:1;fill-rule:nonzero;stroke:none;stroke-width:0.06976507"
         id="path222"
         inkscape:connector-curvature="0" />
      <path
         d="m 15.191933,80.288953 c 3.387519,1.073738 6.806692,1.99232 10.262296,2.757917 0.94227,0.208594 1.343254,-1.37823 0.397659,-1.587559 -3.455615,-0.765596 -6.874777,-1.684913 -10.262237,-2.757928 -0.929166,-0.294233 -1.32323,1.294794 -0.397718,1.58757"
         style="fill:#4b2618;fill-opacity:1;fill-rule:nonzero;stroke:none;stroke-width:0.06976507"
         id="path224"
         inkscape:connector-curvature="0" />
      <path
         d="m 15.935907,92.606622 c 3.195274,-1.045199 6.390747,-2.089663 9.58615,-3.134862 0.922322,-0.301554 0.529322,-1.891304 -0.397648,-1.588293 -3.195414,1.045199 -6.390946,2.090398 -9.586489,3.134874 -0.922653,0.301554 -0.529386,1.891304 0.397987,1.588281"
         style="fill:#4b2618;fill-opacity:1;fill-rule:nonzero;stroke:none;stroke-width:0.06976507"
         id="path226"
         inkscape:connector-curvature="0" />
      <path
         d="m 25.162971,102.80316 c 1.933755,-1.85763 4.009135,-3.48252 6.230157,-4.896621 0.834546,-0.531378 0.08183,-1.954991 -0.754744,-1.422145 -2.330079,1.483629 -4.505879,3.205871 -6.533192,5.154266 -0.728076,0.699 0.334292,1.8591 1.057779,1.1645"
         style="fill:#4b2618;fill-opacity:1;fill-rule:nonzero;stroke:none;stroke-width:0.06976507"
         id="path228"
         inkscape:connector-curvature="0" />
      <path
         d="m 31.683052,40.435279 c 1.931764,-0.78024 3.864173,-1.560478 5.795926,-2.340717 1.796098,-0.725345 1.020072,-3.909246 -0.795306,-3.175851 -1.932421,0.780239 -3.864174,1.560478 -5.795927,2.340717 -1.796098,0.725344 -1.020739,3.909246 0.795307,3.175851"
         style="fill:#4b2618;fill-opacity:1;fill-rule:nonzero;stroke:none;stroke-width:0.06976507"
         id="path230"
         inkscape:connector-curvature="0" />
      <path
         d="m 93.868224,37.650279 c 1.405767,0.311803 2.703131,0.922234 3.808322,1.944011 1.466933,1.355536 3.595524,-0.961759 2.115955,-2.329006 -1.497534,-1.384083 -3.203855,-2.36414 -5.128959,-2.790856 -1.883873,-0.417933 -2.686508,2.756454 -0.795318,3.175851"
         style="fill:#4b2618;fill-opacity:1;fill-rule:nonzero;stroke:none;stroke-width:0.06976507"
         id="path232"
         inkscape:connector-curvature="0" />
    </g>
  </g>
</svg>
