<?xml version="1.0" encoding="UTF-8" standalone="no"?>
<!-- Created with Inkscape (http://www.inkscape.org/) -->

<svg
   xmlns:dc="http://purl.org/dc/elements/1.1/"
   xmlns:cc="http://creativecommons.org/ns#"
   xmlns:rdf="http://www.w3.org/1999/02/22-rdf-syntax-ns#"
   xmlns:svg="http://www.w3.org/2000/svg"
   xmlns="http://www.w3.org/2000/svg"
   xmlns:sodipodi="http://sodipodi.sourceforge.net/DTD/sodipodi-0.dtd"
   xmlns:inkscape="http://www.inkscape.org/namespaces/inkscape"
   width="16px"
   height="16px"
   viewBox="0 0 16 16"
   version="1.1"
   id="SVGRoot"
   inkscape:version="0.92.3 (2405546, 2018-03-11)"
   sodipodi:docname="org.cattus.icon.svg">
  <sodipodi:namedview
     id="base"
     pagecolor="#ffffff"
     bordercolor="#666666"
     borderopacity="1.0"
     inkscape:pageopacity="0.0"
     inkscape:pageshadow="2"
     inkscape:zoom="5.6568543"
     inkscape:cx="13.105817"
     inkscape:cy="-10.85597"
     inkscape:document-units="px"
     inkscape:current-layer="layer1"
     showgrid="false"
     inkscape:window-width="1366"
     inkscape:window-height="717"
     inkscape:window-x="0"
     inkscape:window-y="19"
     inkscape:window-maximized="1"
     inkscape:grid-bbox="true" />
  <defs
     id="defs2325" />
  <metadata
     id="metadata2328">
    <rdf:RDF>
      <cc:Work
         rdf:about="">
        <dc:format>image/svg+xml</dc:format>
        <dc:type
           rdf:resource="http://purl.org/dc/dcmitype/StillImage" />
        <dc:title></dc:title>
      </cc:Work>
    </rdf:RDF>
  </metadata>
  <g
     id="layer1"
     inkscape:groupmode="layer"
     inkscape:label="Layer 1">
    <g
       id="g2951">
      <path
         d="M 13.678142,1.0208014 C 13.60402,0.56223677 13.252734,0.51121757 12.995171,0.82047366 12.487918,1.429567 12.005323,1.905924 11.637328,2.6400795 c -0.153585,0.3065536 -0.05503,0.5993262 0.130341,0.7667755 0.01176,0.056685 0.02951,0.1113723 0.05644,0.1602972 0.372528,0.6752898 0.865221,1.2211527 1.475408,1.5917173 0.35337,0.2146308 0.656309,-0.00662 0.668634,-0.4833306 0.03254,-1.257172 -0.09053,-2.4192817 -0.290013,-3.6547375"
         style="fill:#efba3d;fill-opacity:1;fill-rule:nonzero;stroke:none;stroke-width:0.00804806"
         id="path192"
         inkscape:connector-curvature="0" />
      <path
         d="M 5.5938397,3.5141261 C 5.2743397,2.9713141 4.9548349,2.4285896 4.6354086,1.8857776 4.3525206,1.4052344 4.125858,0.86233631 3.6428924,0.64107658 3.387328,0.52394708 3.2103336,0.83041574 3.1527973,1.1308637 2.9377374,2.2538145 2.731992,3.4208958 2.6878396,4.5707093 2.6669402,5.1149138 3.0831167,5.1927945 3.3978787,4.9847938 3.5459879,4.8870339 3.7170853,4.8458669 3.8870096,4.8501392 4.4056229,4.8632146 5.0184855,4.5691395 5.4073503,4.3493609 5.6492433,4.2127007 5.7457892,3.7722756 5.5938397,3.5141261"
         style="fill:#efba3d;fill-opacity:1;fill-rule:nonzero;stroke:none;stroke-width:0.00804806"
         id="path194"
         inkscape:connector-curvature="0" />
      <path
         d="M 15.332461,9.6614028 C 15.148203,7.2051439 14.081788,4.6317568 12.772813,3.602386 10.050591,1.4614876 5.0832465,1.9592099 3.3191187,3.8899258 1.8251718,5.5249881 0.4600878,9.7196615 1.5027174,12.064986 c 0.7356325,1.654688 3.2563481,2.822033 4.7021241,3.024018 3.1889217,0.445479 7.5334535,0.09149 8.8526775,-3.361444 0.247389,-0.647382 0.327746,-1.361741 0.274942,-2.0661572"
         style="fill:#efba3d;fill-opacity:1;fill-rule:nonzero;stroke:none;stroke-width:0.00804806"
         id="path196"
         inkscape:connector-curvature="0" />
      <path
         d="M 9.8848235,9.6515493 C 10.231137,10.029091 9.8035746,10.625276 9.5173469,10.815661 9.028216,11.141052 8.4532336,10.635045 8.4208528,10.024644 c -0.109399,0.01733 -0.2187927,0.03481 -0.3282647,0.05215 0.041574,0.323469 -0.1696265,0.493708 -0.3616098,0.657842 C 7.4370967,10.985901 7.127993,10.981277 6.8188881,10.767071 6.4259397,10.494789 6.3502588,10.04277 6.5575395,9.5876046 6.6591393,9.364514 6.3706084,9.1662818 6.2689363,9.3894573 5.9273043,10.139662 6.174022,10.95946 6.8821658,11.244995 7.5560738,11.516751 8.5335174,10.896581 8.4149087,9.9724734 8.3867028,9.7530458 8.0749852,9.805636 8.086644,10.024625 8.132618,10.8903 8.8853984,11.583552 9.5997073,11.200772 10.11669,10.923789 10.66434,9.9662804 10.121146,9.3740165 9.963472,9.2021188 9.7265573,9.4789323 9.8848235,9.6515294"
         style="fill:#4b2618;fill-opacity:1;fill-rule:nonzero;stroke:none;stroke-width:0.00804806"
         id="path198"
         inkscape:connector-curvature="0" />
      <path
         d="M 3.9056516,7.2709033 C 3.786082,7.631527 3.7544407,8.1283788 3.8766655,8.4946711 c 0.081472,0.24402 0.28088,0.4054511 0.4781374,0.2161157 C 4.430777,8.637879 4.4794252,8.5329583 4.51589,8.4259457 4.6037507,8.1684094 4.6290675,7.8827016 4.5920897,7.609024 4.5647067,7.4063409 4.508017,6.9212669 4.2898163,6.9017299 4.2249094,6.8958603 4.0007678,6.9837043 3.9056279,7.2709033"
         style="fill:#4b2618;fill-opacity:1;fill-rule:nonzero;stroke:none;stroke-width:0.00804806"
         id="path200"
         inkscape:connector-curvature="0" />
      <path
         d="M 3.7444909,7.2186602 C 3.5930556,7.7251082 3.5390792,8.448621 3.8936202,8.8589577 4.2824897,9.3091513 4.649594,8.6349954 4.7370071,8.2514341 4.8207117,7.8844438 4.7986485,7.1474084 4.5434653,6.8532396 4.2634023,6.5304673 3.9014943,6.8283875 3.7613494,7.1718271 3.6686676,7.3988453 3.9568208,7.5980379 4.049879,7.3698907 4.1159735,7.2079363 4.2625853,6.9771704 4.3514091,7.2388953 c 0.063351,0.1867203 0.08266,0.4085045 0.09001,0.6067368 0.00522,0.1418979 -0.021849,0.2803902 -0.052807,0.41618 C 4.3669768,8.4664996 4.2564153,8.5401966 4.0568566,8.4827246 4.0229782,8.4027483 3.9994544,8.3189369 3.9860004,8.2313776 3.9249527,7.9341529 3.9825568,7.6045781 4.0667245,7.3230539 4.1383169,7.0835697 3.8154041,6.9815326 3.7444778,7.2186627"
         style="fill:#4b2618;fill-opacity:1;fill-rule:nonzero;stroke:none;stroke-width:0.00804806"
         id="path202"
         inkscape:connector-curvature="0" />
      <path
         d="m 11.695181,7.0212997 c -0.162052,0.2888461 -0.146755,0.7324995 -0.10791,1.0460279 0.02051,0.1655299 0.05303,0.3355107 0.139773,0.4681608 0.08674,0.1325603 0.21389,0.3034128 0.348169,0.2476829 0.144599,-0.060007 0.241816,-0.3368182 0.274568,-0.5127247 0.06506,-0.3498999 0.045,-0.7209889 -0.05705,-1.0585002 C 12.260935,7.107118 12.22011,7.003074 12.153188,6.9242329 12.050175,6.8029198 11.908175,6.7743137 11.794697,6.8880413 c -0.03894,0.038914 -0.07182,0.08381 -0.09952,0.1332596"
         style="fill:#4b2618;fill-opacity:1;fill-rule:nonzero;stroke:none;stroke-width:0.00804806"
         id="path204"
         inkscape:connector-curvature="0" />
      <path
         d="m 11.550879,6.9222273 c -0.200225,0.4194919 -0.247535,1.1799857 -0.02371,1.6064587 0.219312,0.4177485 0.564063,0.640924 0.850814,0.1819222 0.269071,-0.430829 0.230824,-1.2538551 0.02362,-1.7013449 -0.210327,-0.4542037 -0.586567,-0.496155 -0.850741,-0.087032 -0.130341,0.2018077 0.160122,0.396989 0.28853,0.1980599 0.250878,-0.3883594 0.367701,0.4994657 0.37743,0.616243 0.02219,0.2665217 -0.017,0.5420265 -0.127442,0.7760194 -0.163687,0.028761 -0.262313,-0.054862 -0.295957,-0.250996 -0.04157,-0.1229741 -0.04769,-0.2653878 -0.05831,-0.3956864 -0.02093,-0.2569268 -0.0046,-0.5172605 0.104271,-0.74558 C 11.944923,6.8992934 11.656173,6.7014921 11.550863,6.922231"
         style="fill:#4b2618;fill-opacity:1;fill-rule:nonzero;stroke:none;stroke-width:0.00804806"
         id="path206"
         inkscape:connector-curvature="0" />
      <path
         d="m 15.499565,9.6614028 c -0.13799,-1.677447 -0.605139,-3.3255086 -1.408644,-4.7271937 0,0.066027 0,0.1320408 0,0.1980637 0.0638,-0.1343087 0.045,-0.328095 0.04419,-0.4751369 -0.0021,-0.3843444 -0.02496,-0.7689547 -0.04783,-1.1521676 C 14.034766,2.6244689 13.993917,1.6993158 13.811962,0.83983455 13.740738,0.50336731 13.495434,0.28376605 13.206083,0.37987493 12.921862,0.47432534 12.664597,0.960276 12.482269,1.2088318 12.226488,1.5575952 11.978434,1.9144699 11.735874,2.276054 11.623062,2.4441127 11.469844,2.6238582 11.40449,2.8270646 11.473041,2.7814567 11.541588,2.7357488 11.610062,2.6900535 9.5656883,1.7919366 7.1678681,1.7778946 5.0922985,2.5483329 c 0.0629,0.030085 0.1258122,0.060082 0.1887171,0.090179 C 4.9930084,2.1492484 4.7174008,1.6479494 4.4223353,1.1647911 4.2536734,0.88841351 3.8850811,0.38109755 3.5507983,0.41990677 2.8737115,0.49857173 2.8709257,1.7605406 2.7832004,2.3577736 2.6731578,3.1064945 2.5640794,3.8613209 2.5025484,4.6181518 2.497086,4.6845281 2.4891419,4.7573472 2.5027776,4.8232764 2.4797645,4.712079 2.2272056,5.205268 2.1907099,5.2759103 1.9594625,5.7234889 1.7689191,6.1975767 1.5965677,6.6797733 0.99171342,8.3717919 0.59075316,10.65345 1.4392663,12.33055 c 0.7695751,1.521166 2.5219362,2.341226 3.9073319,2.764123 0.9844961,0.300532 2.0422968,0.343444 3.0545707,0.344142 1.093375,9.9e-4 2.1955881,-0.130645 3.2533851,-0.463012 2.123028,-0.667091 4.016567,-2.5174 3.845006,-5.314399 -0.01545,-0.2509124 -0.349726,-0.2526545 -0.334204,0 0.289127,4.713242 -4.693593,5.518998 -7.6461198,5.360706 C 5.8793235,14.934204 4.3225928,14.500492 2.9220426,13.455682 2.2216898,12.933193 1.6612562,12.25459 1.4308222,11.302049 1.1837625,10.28079 1.3127286,9.1557428 1.5297501,8.1452982 1.7397656,7.1677296 2.0881294,6.2310658 2.5328395,5.370362 2.6511469,5.1413444 2.8244791,4.8816251 2.8314793,4.6992608 2.8422852,4.4173895 2.8847728,4.1340332 2.9185087,3.8551292 3.0163917,3.045708 3.1290645,2.2373334 3.2676824,1.4361097 3.3025108,1.2349102 3.3267114,1.0344076 3.4417508,0.86817967 3.6151151,0.61744337 4.0535186,1.2402303 4.1338021,1.362851 c 0.3070969,0.4692049 0.572015,0.9868113 0.8586886,1.4737211 0.041751,0.070985 0.1135575,0.1180911 0.1887135,0.090179 2.0241012,-0.7513385 4.34676,-0.7338958 6.3400428,0.1417205 0.09098,0.040026 0.175717,-0.044222 0.205572,-0.1370111 0.01877,-0.058696 0.18218,-0.2829179 0.245381,-0.3778928 0.182774,-0.2746331 0.371417,-0.5440334 0.561766,-0.8115155 0.17349,-0.2436716 0.350617,-0.4838563 0.532799,-0.7186323 0.144006,-0.18550148 0.373939,-0.31056491 0.450213,0.049542 0.03015,0.1425935 0.04322,0.2932096 0.06171,0.4383308 0.08868,0.6949117 0.138882,1.3980209 0.180694,2.0987747 0.01804,0.3024536 0.0318,0.6053431 0.03928,0.9084099 0.0021,0.09209 0.01081,0.4007417 0.0034,0.4157391 -0.02786,0.058609 -0.03327,0.1399772 0,0.1980637 0.769639,1.3424646 1.230693,2.9204933 1.363038,4.5291299 0.02051,0.249515 0.35493,0.2518715 0.334209,0"
         style="fill:#4b2618;fill-opacity:1;fill-rule:nonzero;stroke:none;stroke-width:0.00804806"
         id="path208"
         inkscape:connector-curvature="0" />
      <path
         d="M 2.746269,4.9724963 C 3.1707031,4.3387207 3.6865603,3.8287897 4.2927375,3.4493271 4.4829354,3.3301994 4.3141119,2.9914605 4.1239984,3.1104183 3.4952166,3.5040966 2.9505644,4.0370539 2.5099772,4.6949872 2.3783512,4.8915647 2.6131325,5.1713417 2.746269,4.9724963"
         style="fill:#4b2618;fill-opacity:1;fill-rule:nonzero;stroke:none;stroke-width:0.00804806"
         id="path210"
         inkscape:connector-curvature="0" />
      <path
         d="M 14.064778,4.8944421 C 13.651475,4.268167 13.120458,3.770968 12.548448,3.3571433 c -0.184036,-0.1331734 -0.351734,0.206346 -0.168662,0.3388214 0.549659,0.3977769 1.051712,0.8743937 1.44867,1.4759865 0.131829,0.1998957 0.366589,-0.080064 0.236322,-0.2775091"
         style="fill:#4b2618;fill-opacity:1;fill-rule:nonzero;stroke:none;stroke-width:0.00804806"
         id="path212"
         inkscape:connector-curvature="0" />
      <path
         d="m 7.5220612,9.2506303 c -0.041359,-0.062355 -0.023322,-0.1178164 0.042618,-0.1337842 0.452887,-0.1097113 1.4073768,0.004 1.4442915,0.118778 C 9.0458726,9.3502184 8.9543842,9.3628718 8.8729106,9.4394412 8.7501444,9.5547349 8.6236664,9.6646273 8.4936973,9.7685852 8.4275993,9.8215239 8.3553356,9.8748996 8.2752766,9.8744625 8.2229176,9.8742702 8.1727875,9.8507469 8.1251046,9.8253453 7.9101752,9.7105762 7.5220505,9.2506128 7.5220505,9.2506128"
         style="fill:#4b2618;fill-opacity:1;fill-rule:nonzero;stroke:none;stroke-width:0.00804806"
         id="path214"
         inkscape:connector-curvature="0" />
      <path
         d="m 7.6662898,9.1515579 c -0.040623,0.1324766 -0.013751,0.17617 0.080653,0.1313426 0.069954,-0.00874 0.1405902,-0.010615 0.210846,-0.013275 0.1250677,-0.0045 0.2502824,0.002 0.3751294,0.00949 0.1206854,0.00749 0.241297,0.02198 0.3607927,0.043173 0.050503,0.00899 0.1002615,0.02178 0.1499471,0.035592 C 9.009274,9.4040263 8.6963842,9.339311 8.8493695,9.2219143 8.6270857,9.3925045 8.3821504,9.78775 8.108321,9.5879442 7.9358739,9.4620129 7.7833266,9.2801743 7.6402106,9.111852 7.4878146,8.9325423 7.2514931,9.2100489 7.403888,9.3893599 7.6190428,9.6424552 7.9430768,10.07067 8.2752783,10.07067 c 0.2389912,0 0.4667,-0.2621641 0.6416736,-0.4239412 C 9.0317705,9.5405017 9.2981725,9.3643329 9.1532739,9.136533 8.9718372,8.851607 8.4469121,8.8904187 8.1825916,8.8786445 7.9184181,8.8669054 7.1761103,8.8100952 7.3777459,9.3495928 7.4641223,9.5808833 7.7520582,9.3809888 7.6662791,9.1515341"
         style="fill:#4b2618;fill-opacity:1;fill-rule:nonzero;stroke:none;stroke-width:0.00804806"
         id="path216"
         inkscape:connector-curvature="0" />
      <path
         d="m 12.514805,10.016357 c 0.395181,-0.079015 0.790362,-0.1580296 1.185542,-0.2370442 0.106053,-0.021193 0.06089,-0.2102686 -0.04449,-0.1891618 -0.395181,0.079015 -0.790358,0.1579406 -1.185539,0.2369552 -0.106053,0.021193 -0.0609,0.2102728 0.04448,0.1892508"
         style="fill:#4b2618;fill-opacity:1;fill-rule:nonzero;stroke:none;stroke-width:0.00804806"
         id="path218"
         inkscape:connector-curvature="0" />
      <path
         d="m 12.468684,10.873485 c 0.343268,0.06123 0.678808,0.155589 1.008484,0.283614 0.102644,0.03976 0.146235,-0.149741 0.04441,-0.189251 -0.329679,-0.127941 -0.66522,-0.222304 -1.008414,-0.283613 -0.105388,-0.01877 -0.150687,0.170238 -0.04448,0.18925"
         style="fill:#4b2618;fill-opacity:1;fill-rule:nonzero;stroke:none;stroke-width:0.00804806"
         id="path220"
         inkscape:connector-curvature="0" />
      <path
         d="m 12.442689,11.796023 c 0.204537,0.165006 0.403572,0.338645 0.596672,0.521708 0.08303,0.07866 0.202008,-0.05922 0.118165,-0.13876 -0.204161,-0.193607 -0.414193,-0.377892 -0.630538,-0.552315 -0.08905,-0.07186 -0.17252,0.09828 -0.0843,0.169367"
         style="fill:#4b2618;fill-opacity:1;fill-rule:nonzero;stroke:none;stroke-width:0.00804806"
         id="path222"
         inkscape:connector-curvature="0" />
      <path
         d="M 2.5574949,9.7793128 C 2.9358291,9.9072536 3.3176997,10.016708 3.7036432,10.107932 3.8088766,10.132784 3.8536643,9.9437087 3.7480545,9.9187654 3.3621145,9.8275371 2.9802404,9.7180031 2.6019145,9.590151 2.4981298,9.5550958 2.4541258,9.7444274 2.5574913,9.7793128"
         style="fill:#4b2618;fill-opacity:1;fill-rule:nonzero;stroke:none;stroke-width:0.00804806"
         id="path224"
         inkscape:connector-curvature="0" />
      <path
         d="m 2.6405855,11.247016 c 0.3568649,-0.124535 0.7137511,-0.248991 1.0706338,-0.373531 0.1030128,-0.03594 0.059112,-0.225358 -0.044411,-0.18925 -0.3568815,0.124535 -0.713776,0.24908 -1.0706717,0.37353 -0.1030485,0.03594 -0.059124,0.22536 0.044447,0.189251"
         style="fill:#4b2618;fill-opacity:1;fill-rule:nonzero;stroke:none;stroke-width:0.00804806"
         id="path226"
         inkscape:connector-curvature="0" />
      <path
         d="m 3.6711114,12.461981 c 0.2159718,-0.221349 0.4477642,-0.414962 0.6958191,-0.583458 0.093204,-0.06332 0.00914,-0.232944 -0.084298,-0.169451 -0.2602371,0.17678 -0.5032428,0.381992 -0.7296632,0.614149 -0.081318,0.08329 0.037334,0.221522 0.1181412,0.13876"
         style="fill:#4b2618;fill-opacity:1;fill-rule:nonzero;stroke:none;stroke-width:0.00804806"
         id="path228"
         inkscape:connector-curvature="0" />
      <path
         d="M 4.3993115,5.0305815 C 4.6150589,4.9376048 4.8308835,4.844643 5.0466309,4.7516775 5.2472274,4.6652447 5.1605565,4.2858732 4.9578083,4.3732601 4.7419838,4.4662244 4.5262364,4.5591974 4.310489,4.6521642 4.1098925,4.738597 4.1964921,5.1179685 4.3993115,5.0305815"
         style="fill:#4b2618;fill-opacity:1;fill-rule:nonzero;stroke:none;stroke-width:0.00804806"
         id="path230"
         inkscape:connector-curvature="0" />
      <path
         d="m 11.34449,4.698735 c 0.157003,0.037128 0.301897,0.1098862 0.425333,0.2316364 0.163834,0.1615199 0.401566,-0.1145943 0.236318,-0.2775091 C 11.83889,4.4879419 11.64832,4.3711658 11.433313,4.3203227 c -0.2104,-0.049804 -0.300041,0.3284409 -0.08882,0.3784123"
         style="fill:#4b2618;fill-opacity:1;fill-rule:nonzero;stroke:none;stroke-width:0.00804806"
         id="path232"
         inkscape:connector-curvature="0" />
    </g>
  </g>
</svg>
