<?xml version="1.0" encoding="UTF-8" standalone="no"?>
<!-- Created with Inkscape (http://www.inkscape.org/) -->

<svg
   xmlns:dc="http://purl.org/dc/elements/1.1/"
   xmlns:cc="http://creativecommons.org/ns#"
   xmlns:rdf="http://www.w3.org/1999/02/22-rdf-syntax-ns#"
   xmlns:svg="http://www.w3.org/2000/svg"
   xmlns="http://www.w3.org/2000/svg"
   xmlns:sodipodi="http://sodipodi.sourceforge.net/DTD/sodipodi-0.dtd"
   xmlns:inkscape="http://www.inkscape.org/namespaces/inkscape"
   width="250px"
   height="250px"
   viewBox="0 0 250 250"
   version="1.1"
   id="SVGRoot"
   inkscape:version="0.92.3 (2405546, 2018-03-11)"
   sodipodi:docname="org.cattus.iconscalable.svg">
  <sodipodi:namedview
     id="base"
     pagecolor="#ffffff"
     bordercolor="#666666"
     borderopacity="1.0"
     inkscape:pageopacity="0.0"
     inkscape:pageshadow="2"
     inkscape:zoom="1.024"
     inkscape:cx="125"
     inkscape:cy="125"
     inkscape:document-units="px"
     inkscape:current-layer="layer1"
     showgrid="false"
     inkscape:window-width="1366"
     inkscape:window-height="717"
     inkscape:window-x="0"
     inkscape:window-y="19"
     inkscape:window-maximized="1"
     inkscape:grid-bbox="true" />
  <defs
     id="defs5472" />
  <metadata
     id="metadata5475">
    <rdf:RDF>
      <cc:Work
         rdf:about="">
        <dc:format>image/svg+xml</dc:format>
        <dc:type
           rdf:resource="http://purl.org/dc/dcmitype/StillImage" />
        <dc:title></dc:title>
      </cc:Work>
    </rdf:RDF>
  </metadata>
  <g
     id="layer1"
     inkscape:groupmode="layer"
     inkscape:label="Layer 1">
    <g
       id="g6098">
      <path
         d="m 215.95863,19.140763 c -1.21133,-7.188824 -6.95239,-7.988645 -11.16168,-3.140496 -8.28996,9.548639 -16.17695,17.016375 -22.19112,28.525602 -2.51003,4.805766 -0.89938,9.395511 2.13015,12.020566 0.19177,0.888693 0.48186,1.745936 0.92246,2.512945 6.08819,10.586355 14.14024,19.143764 24.11248,24.953065 5.77504,3.364721 10.72595,-0.103908 10.92744,-7.577112 0.53162,-19.708424 -1.47958,-37.926582 -4.73973,-57.294569"
         style="fill:#efba3d;fill-opacity:1;fill-rule:nonzero;stroke:none;stroke-width:0.1288203"
         id="path192"
         inkscape:connector-curvature="0" />
      <path
         d="M 83.837662,58.228112 C 78.616084,49.718557 73.394506,41.210371 68.174138,32.700815 63.550947,25.167454 59.846559,16.65653 51.953511,13.187903 c -4.176657,-1.836172 -7.06928,2.968226 -8.009577,7.678287 -3.514673,17.604279 -6.87714,35.900367 -7.598719,53.925748 -0.341308,8.53143 6.459973,9.752356 11.604113,6.491544 2.420477,-1.532649 5.216725,-2.177975 7.993802,-2.110983 8.47565,0.205083 18.491569,-4.405171 24.84679,-7.850556 3.953206,-2.142428 5.531087,-9.046869 3.047742,-13.093831"
         style="fill:#efba3d;fill-opacity:1;fill-rule:nonzero;stroke:none;stroke-width:0.1288203"
         id="path194"
         inkscape:connector-curvature="0" />
      <path
         d="M 242.99504,154.59774 C 239.98371,116.09145 222.55539,75.748989 201.16295,59.611734 156.67393,26.049308 75.493086,33.852012 46.66214,64.119448 22.246712,89.752019 -0.06272862,155.51103 16.976827,192.27821 c 12.022373,25.94021 53.218215,44.24039 76.846402,47.40686 52.116261,6.98375 123.118541,1.43422 144.678501,-52.69662 4.04301,-10.14884 5.35631,-21.34771 4.49331,-32.39071"
         style="fill:#efba3d;fill-opacity:1;fill-rule:nonzero;stroke:none;stroke-width:0.1288203"
         id="path196"
         inkscape:connector-curvature="0" />
      <path
         d="m 153.96483,154.44323 c 5.65975,5.91869 -1.32785,15.26498 -6.00566,18.24961 -7.99379,5.10109 -17.39071,-2.83151 -17.91989,-12.40065 -1.78787,0.27207 -3.57573,0.54551 -5.36481,0.81759 0.6797,5.07101 -2.7722,7.73981 -5.90976,10.31292 -4.80283,3.93894 -9.85448,3.86648 -14.90614,0.5086 -6.421984,-4.26845 -7.658804,-11.35474 -4.271209,-18.49023 1.660419,-3.49735 -3.055029,-6.60503 -4.716658,-3.10632 -5.583274,11.7608 -1.55118,24.61263 10.021977,29.08889 11.01362,4.26026 26.98787,-5.46202 25.04949,-19.94905 -0.46122,-3.43992 -5.55535,-2.61548 -5.3648,0.8176 0.75132,13.57099 13.05394,24.43898 24.72786,18.43828 8.44894,-4.34228 17.39918,-19.35295 8.52177,-28.63772 -2.5768,-2.69478 -6.44868,1.64476 -3.86217,4.35048"
         style="fill:#4b2618;fill-opacity:1;fill-rule:nonzero;stroke:none;stroke-width:0.1288203"
         id="path198"
         inkscape:connector-curvature="0" />
      <path
         d="m 56.247776,117.12233 c -1.954141,5.65345 -2.471201,13.44247 -0.473365,19.18479 1.331493,3.82546 4.590428,6.35617 7.814161,3.38795 1.241672,-1.14299 2.036679,-2.78775 2.632637,-4.46532 1.435869,-4.03739 1.849763,-8.5164 1.245313,-12.80672 -0.447876,-3.17741 -1.373969,-10.78187 -4.939991,-11.08813 -1.060818,-0.0915 -4.723933,1.28519 -6.278755,5.78743"
         style="fill:#4b2618;fill-opacity:1;fill-rule:nonzero;stroke:none;stroke-width:0.1288203"
         id="path200"
         inkscape:connector-curvature="0" />
      <path
         d="m 53.613929,116.30338 c -2.474852,7.93941 -3.357004,19.28185 2.437218,25.7146 6.355223,7.05756 12.354821,-3.51101 13.78341,-9.52403 1.367905,-5.75325 1.007421,-17.3076 -3.163043,-21.91923 -4.577073,-5.06006 -10.491703,-0.38966 -12.78206,4.99445 -1.514767,3.55886 3.194603,6.68159 4.715432,3.10496 1.080246,-2.53893 3.476201,-6.15658 4.927856,-2.05356 1.035331,2.92721 1.35091,6.40403 1.471072,9.51171 0.0862,2.22446 -0.356843,4.39561 -0.86298,6.52437 -0.353204,3.20886 -2.160492,4.36415 -5.421847,3.46316 -0.553474,-1.25375 -0.938238,-2.56764 -1.157925,-3.94033 -0.997706,-4.65947 -0.05707,-9.82618 1.31935,-14.23955 1.170058,-3.75438 -4.107349,-5.35403 -5.266483,-1.63655"
         style="fill:#4b2618;fill-opacity:1;fill-rule:nonzero;stroke:none;stroke-width:0.1288203"
         id="path202"
         inkscape:connector-curvature="0" />
      <path
         d="m 183.55134,113.20936 c -2.64841,4.52822 -2.39838,11.48325 -1.76358,16.39839 0.335,2.59498 0.86662,5.25968 2.28429,7.33922 1.41766,2.07817 3.49562,4.75654 5.69009,3.88289 2.36318,-0.94064 3.95199,-5.28019 4.48725,-8.03786 1.06325,-5.48528 0.73553,-11.30277 -0.93217,-16.59391 -0.51949,-1.6434 -1.18704,-3.27447 -2.28063,-4.51045 -1.6835,-1.90179 -4.00419,-2.35025 -5.85881,-0.5674 -0.636,0.6098 -1.17371,1.3139 -1.62643,2.08912"
         style="fill:#4b2618;fill-opacity:1;fill-rule:nonzero;stroke:none;stroke-width:0.1288203"
         id="path204"
         inkscape:connector-curvature="0" />
      <path
         d="m 181.19301,111.6562 c -3.27227,6.57631 -4.04543,18.49844 -0.38719,25.18413 3.58423,6.54896 9.21849,10.04766 13.9048,2.85201 4.39743,-6.75406 3.77236,-19.65647 0.38598,-26.67166 -3.43735,-7.12046 -9.58625,-7.7781 -13.90359,-1.36448 -2.13013,3.16374 2.61686,6.22357 4.71544,3.10496 4.10008,-6.08823 6.00932,7.83004 6.16832,9.66074 0.36291,4.17822 -0.27795,8.49726 -2.08281,12.16549 -2.67511,0.45118 -4.28699,-0.85998 -4.83681,-3.93485 -0.67971,-1.92777 -0.77923,-4.16044 -0.95281,-6.20307 -0.34228,-4.02781 -0.0765,-8.10895 1.70411,-11.68831 1.72476,-3.46453 -2.99433,-6.56539 -4.71544,-3.10496"
         style="fill:#4b2618;fill-opacity:1;fill-rule:nonzero;stroke:none;stroke-width:0.1288203"
         id="path206"
         inkscape:connector-curvature="0" />
      <path
         d="m 245.72599,154.59774 c -2.25515,-26.29704 -9.88967,-52.13334 -23.0213,-74.107245 0,1.034984 0,2.069968 0,3.10495 1.04262,-2.105514 0.73553,-5.143469 0.72219,-7.448596 -0.0352,-6.02532 -0.40782,-12.054745 -0.78167,-18.062295 -0.85811,-13.803416 -1.52568,-28.306847 -4.49938,-41.780766 -1.164,-5.274719 -5.17303,-8.7173704 -9.90183,-7.2106981 -4.64505,1.4806961 -8.84949,9.0988261 -11.82926,12.9953921 -4.18017,5.467499 -8.23413,11.062148 -12.19826,16.730628 -1.84369,2.634626 -4.34766,5.452458 -5.41578,8.638071 1.1203,-0.715054 2.2406,-1.431476 3.35968,-2.147895 C 148.74931,31.22969 109.562,31.009568 75.641168,43.087557 c 1.028049,0.47169 2.056106,0.942012 3.084153,1.413702 C 74.018373,36.831176 69.514125,28.972416 64.691876,21.398037 61.935436,17.065329 55.911568,9.1122311 50.448457,9.7206423 39.382882,10.953871 39.337367,30.737492 37.903677,40.100189 36.105256,51.837742 34.322613,63.671 33.317015,75.535703 c -0.08823,1.040452 -0.219083,2.182077 0.0037,3.215693 -0.376021,-1.743201 -4.503641,5.988408 -5.100081,7.095853 -3.779272,7.016555 -6.893284,14.448741 -9.710047,22.008081 -9.8850706,26.52537 -16.4378961,62.29448 -2.570735,88.58605 12.57706,23.84699 41.21575,36.70294 63.857152,43.33256 16.089553,4.71143 33.377096,5.38411 49.920586,5.39503 17.8689,0.0123 35.88223,-2.04808 53.16977,-7.25854 34.69645,-10.45784 65.64236,-39.4647 62.83859,-83.31269 -0.25247,-3.93349 -5.71559,-3.96083 -5.4619,0 4.72512,73.88847 -76.70695,86.52018 -124.95981,84.03868 C 88.503309,237.25827 63.061771,230.4591 40.172764,214.07985 28.726925,205.88885 19.567801,195.25054 15.801881,180.3178 11.7642,164.3077 13.871766,146.67061 17.418604,130.83004 20.850862,115.50492 26.544107,100.821 33.811955,87.327944 c 1.933513,-3.59031 4.766299,-7.661879 4.880633,-10.52073 0.17636,-4.418842 0.870993,-8.86093 1.422401,-13.233287 1.59961,-12.689135 3.44112,-25.361863 5.706474,-37.922479 0.569009,-3.154168 0.964814,-6.297399 2.844801,-8.903314 2.833271,-3.930746 9.998075,5.832545 11.310142,7.754851 5.018878,7.355624 9.348347,15.470053 14.033447,23.103222 0.682128,1.112915 1.855827,1.851211 3.084153,1.413702 33.079714,-11.778568 71.038704,-11.505125 103.614694,2.221726 1.48687,0.627552 2.87176,-0.693177 3.3597,-2.147896 0.30707,-0.920136 2.97733,-4.43525 4.01023,-5.924149 2.98706,-4.305364 6.06999,-8.528696 9.18086,-12.721948 2.83532,-3.820001 5.73014,-7.585316 8.70748,-11.265863 2.35347,-2.908068 6.11126,-4.868656 7.3578,0.77658 0.49277,2.235398 0.7064,4.596581 1.00862,6.871628 1.44923,10.893981 2.26972,21.91648 2.95307,32.902062 0.29494,4.741507 0.51949,9.489849 0.64208,14.240926 0.0376,1.44378 0.17598,6.28236 0.0594,6.517519 -0.45515,0.918771 -0.54376,2.194384 0,3.10495 12.57816,21.045566 20.11316,45.783986 22.27607,71.002296 0.33499,3.91159 5.80054,3.94851 5.4619,0"
         style="fill:#4b2618;fill-opacity:1;fill-rule:nonzero;stroke:none;stroke-width:0.1288203"
         id="path208"
         inkscape:connector-curvature="0" />
      <path
         d="M 37.300077,81.090703 C 44.23657,71.155143 52.667198,63.161028 62.573869,57.21227 65.6823,55.344651 62.92343,50.034384 59.816218,51.899267 49.540077,58.070881 40.638877,66.425941 33.43839,76.740221 c -2.151139,3.081705 1.685908,7.467738 3.861687,4.350482"
         style="fill:#4b2618;fill-opacity:1;fill-rule:nonzero;stroke:none;stroke-width:0.1288203"
         id="path210"
         inkscape:connector-curvature="0" />
      <path
         d="m 222.27744,79.867046 c -6.75456,-9.817981 -15.4329,-17.612483 -24.78125,-24.099925 -3.00768,-2.087738 -5.74835,3.234835 -2.75644,5.311636 8.98302,6.235873 17.188,13.707711 23.67552,23.13877 2.15442,3.13366 5.9911,-1.255105 3.86217,-4.350481"
         style="fill:#4b2618;fill-opacity:1;fill-rule:nonzero;stroke:none;stroke-width:0.1288203"
         id="path212"
         inkscape:connector-curvature="0" />
      <path
         d="m 115.35041,148.15814 c -0.67606,-0.97756 -0.38111,-1.8471 0.6967,-2.0973 7.40148,-1.71997 23.00067,0.0642 23.60391,1.86214 0.60322,1.79652 -0.89212,1.99477 -2.22361,3.19518 -2.00634,1.80746 -4.07337,3.53016 -6.19743,5.15988 -1.08026,0.82991 -2.26123,1.66664 -3.56967,1.6598 -0.85569,-0.003 -1.67497,-0.37188 -2.45421,-0.76975 -3.5126,-1.79925 -9.85569,-9.00995 -9.85569,-9.00995"
         style="fill:#4b2618;fill-opacity:1;fill-rule:nonzero;stroke:none;stroke-width:0.1288203"
         id="path214"
         inkscape:connector-curvature="0" />
      <path
         d="m 117.70752,146.60498 c -0.66394,2.0768 -0.22453,2.76177 1.31815,2.05903 1.14336,-0.13672 2.29764,-0.1668 3.44584,-0.20782 2.04395,-0.0711 4.09036,0.0274 6.13067,0.14904 1.97237,0.11757 3.9435,0.34453 5.89644,0.67676 0.82535,0.14082 1.63857,0.3418 2.45057,0.55783 2.70668,0.72325 -2.40688,-0.29122 0.0935,-2.1315 -3.63276,2.67428 -7.63574,8.87051 -12.11086,5.73821 -2.81832,-1.97425 -5.31139,-4.8249 -7.65029,-7.46363 -2.49063,-2.811 -6.35281,1.53948 -3.86217,4.35048 3.51625,3.96766 8.81187,10.6807 14.24099,10.6807 3.90586,0 7.62724,-4.10986 10.48685,-6.64604 1.87647,-1.66527 6.23022,-4.42706 3.86217,-7.99822 -2.9652,-4.46669 -11.54402,-3.85828 -15.86378,-4.04286 -4.31734,-0.18457 -16.44882,-1.07463 -13.15348,7.38297 1.4116,3.62586 6.11733,0.4922 4.71544,-3.10495"
         style="fill:#4b2618;fill-opacity:1;fill-rule:nonzero;stroke:none;stroke-width:0.1288203"
         id="path216"
         inkscape:connector-curvature="0" />
      <path
         d="m 196.94636,160.1623 c 6.45838,-1.2387 12.91678,-2.4774 19.37519,-3.7161 1.73324,-0.33223 0.99528,-3.29635 -0.72704,-2.96549 -6.4584,1.2387 -12.91679,2.47603 -19.3752,3.71473 -1.73324,0.33223 -0.99527,3.29636 0.72705,2.96686"
         style="fill:#4b2618;fill-opacity:1;fill-rule:nonzero;stroke:none;stroke-width:0.1288203"
         id="path218"
         inkscape:connector-curvature="0" />
      <path
         d="m 196.19262,173.5993 c 5.60997,0.95979 11.09372,2.43912 16.48158,4.44619 1.67742,0.62345 2.38989,-2.34751 0.72582,-2.96686 -5.38785,-2.0057 -10.8716,-3.48503 -16.48037,-4.44618 -1.72232,-0.29397 -2.4627,2.6688 -0.72703,2.96685"
         style="fill:#4b2618;fill-opacity:1;fill-rule:nonzero;stroke:none;stroke-width:0.1288203"
         id="path220"
         inkscape:connector-curvature="0" />
      <path
         d="m 195.7678,188.06172 c 3.34269,2.58677 6.59556,5.30891 9.75132,8.17868 1.35699,1.23323 3.30141,-0.92834 1.93108,-2.17524 -3.3366,-3.03521 -6.76911,-5.92414 -10.30479,-8.65858 -1.45529,-1.12658 -2.81956,1.54086 -1.37761,2.65514"
         style="fill:#4b2618;fill-opacity:1;fill-rule:nonzero;stroke:none;stroke-width:0.1288203"
         id="path222"
         inkscape:connector-curvature="0" />
      <path
         d="m 34.214952,156.4462 c 6.183116,2.00571 12.424006,3.72157 18.731413,5.15167 1.719889,0.38966 2.451785,-2.57446 0.725824,-2.96549 -6.307405,-1.4301 -12.548295,-3.14733 -18.731289,-5.15167 -1.695981,-0.54962 -2.415252,2.41861 -0.725948,2.96549"
         style="fill:#4b2618;fill-opacity:1;fill-rule:nonzero;stroke:none;stroke-width:0.1288203"
         id="path224"
         inkscape:connector-curvature="0" />
      <path
         d="m 35.572902,179.45509 c 5.832219,-1.95239 11.664802,-3.9034 17.497266,-5.85579 1.683477,-0.56329 0.966147,-3.53288 -0.725832,-2.96685 -5.832459,1.95238 -11.665162,3.90477 -17.497867,5.85578 -1.684087,0.56329 -0.96627,3.53289 0.726433,2.96686"
         style="fill:#4b2618;fill-opacity:1;fill-rule:nonzero;stroke:none;stroke-width:0.1288203"
         id="path226"
         inkscape:connector-curvature="0" />
      <path
         d="m 52.41474,198.50179 c 3.5296,-3.47 7.31773,-6.50522 11.37167,-9.14668 1.523271,-0.9926 0.149293,-3.65184 -1.37761,-2.6565 -4.253,2.77134 -8.224404,5.9884 -11.924787,9.62793 -1.32894,1.3057 0.610158,3.47273 1.930727,2.17525"
         style="fill:#4b2618;fill-opacity:1;fill-rule:nonzero;stroke:none;stroke-width:0.1288203"
         id="path228"
         inkscape:connector-curvature="0" />
      <path
         d="m 64.315614,82.001269 c 3.525958,-1.457452 7.053136,-2.914905 10.579094,-4.372356 3.278351,-1.354913 1.861899,-7.302302 -1.451655,-5.932354 -3.527168,1.457454 -7.053136,2.914906 -10.579094,4.372359 -3.278351,1.354912 -1.863119,7.302304 1.451655,5.932352"
         style="fill:#4b2618;fill-opacity:1;fill-rule:nonzero;stroke:none;stroke-width:0.1288203"
         id="path230"
         inkscape:connector-curvature="0" />
      <path
         d="m 177.81999,76.799011 c 2.56588,0.582434 4.93392,1.722693 6.95118,3.631328 2.67754,2.532084 6.56277,-1.796523 3.86217,-4.350482 -2.73338,-2.585407 -5.84787,-4.416109 -9.36169,-5.213197 -3.43859,-0.780681 -4.90358,5.148937 -1.45166,5.932351"
         style="fill:#4b2618;fill-opacity:1;fill-rule:nonzero;stroke:none;stroke-width:0.1288203"
         id="path232"
         inkscape:connector-curvature="0" />
    </g>
  </g>
</svg>
