<?xml version="1.0" encoding="UTF-8" standalone="no"?>
<!-- Created with Inkscape (http://www.inkscape.org/) -->

<svg
   xmlns:dc="http://purl.org/dc/elements/1.1/"
   xmlns:cc="http://creativecommons.org/ns#"
   xmlns:rdf="http://www.w3.org/1999/02/22-rdf-syntax-ns#"
   xmlns:svg="http://www.w3.org/2000/svg"
   xmlns="http://www.w3.org/2000/svg"
   xmlns:sodipodi="http://sodipodi.sourceforge.net/DTD/sodipodi-0.dtd"
   xmlns:inkscape="http://www.inkscape.org/namespaces/inkscape"
   width="48px"
   height="48px"
   viewBox="0 0 48 48"
   version="1.1"
   id="SVGRoot"
   inkscape:version="0.92.3 (2405546, 2018-03-11)"
   sodipodi:docname="org.cattus.icon48.svg">
  <sodipodi:namedview
     id="base"
     pagecolor="#ffffff"
     bordercolor="#666666"
     borderopacity="1.0"
     inkscape:pageopacity="0.0"
     inkscape:pageshadow="2"
     inkscape:zoom="3.7712362"
     inkscape:cx="-11.873444"
     inkscape:cy="15.251055"
     inkscape:document-units="px"
     inkscape:current-layer="layer1"
     showgrid="false"
     inkscape:window-width="1366"
     inkscape:window-height="717"
     inkscape:window-x="0"
     inkscape:window-y="19"
     inkscape:window-maximized="1"
     inkscape:grid-bbox="true" />
  <defs
     id="defs4825" />
  <metadata
     id="metadata4828">
    <rdf:RDF>
      <cc:Work
         rdf:about="">
        <dc:format>image/svg+xml</dc:format>
        <dc:type
           rdf:resource="http://purl.org/dc/dcmitype/StillImage" />
        <dc:title></dc:title>
      </cc:Work>
    </rdf:RDF>
  </metadata>
  <g
     id="layer1"
     inkscape:groupmode="layer"
     inkscape:label="Layer 1">
    <g
       id="g5451">
      <path
         d="M 40.77757,3.5528157 C 40.547277,2.1697542 39.455835,2.0158764 38.655599,2.9486141 c -1.576016,1.8370671 -3.075427,3.2737881 -4.21879,5.4880539 -0.477188,0.9245835 -0.170985,1.807607 0.404964,2.312642 0.03648,0.170976 0.09161,0.335902 0.175371,0.483467 1.157436,2.036715 2.688229,3.683078 4.584062,4.800732 1.097911,0.64734 2.039132,-0.01999 2.077437,-1.457764 C 41.779709,10.784032 41.39736,7.2790312 40.77757,3.5528157"
         style="fill:#efba3d;fill-opacity:1;fill-rule:nonzero;stroke:none;stroke-width:0.02463659"
         id="path192"
         inkscape:connector-curvature="0" />
      <path
         d="M 15.659814,11.072848 C 14.667134,9.4356916 13.674447,7.7987972 12.681998,6.1616403 11.80307,4.712293 11.098828,3.0748731 9.5982592,2.4075421 8.8042339,2.0542802 8.2543094,2.9786007 8.0755458,3.8847713 7.4073665,7.2716665 6.7681221,10.791659 6.6309392,14.259571 c -0.064884,1.641367 1.2281167,1.876261 2.2060826,1.248912 0.4601611,-0.294867 0.991762,-0.419022 1.5197142,-0.406132 1.611321,0.03946 3.515467,-0.847514 4.723666,-1.510373 0.751553,-0.412183 1.051525,-1.740533 0.579412,-2.51913"
         style="fill:#efba3d;fill-opacity:1;fill-rule:nonzero;stroke:none;stroke-width:0.02463659"
         id="path194"
         inkscape:connector-curvature="0" />
      <path
         d="M 45.917511,29.613445 C 45.345023,22.205203 42.031693,14.443698 37.964735,11.339044 29.506851,4.8819536 14.073413,6.3831191 8.5923102,12.206285 3.9506495,17.137749 -0.29063693,29.789154 2.9487846,36.86281 c 2.2855957,4.990645 10.1174074,8.511429 14.6094074,9.120629 9.90791,1.343607 23.406285,0.27593 27.505086,-10.138328 0.768624,-1.95254 1.018294,-4.107098 0.854233,-6.231666"
         style="fill:#efba3d;fill-opacity:1;fill-rule:nonzero;stroke:none;stroke-width:0.02463659"
         id="path196"
         inkscape:connector-curvature="0" />
      <path
         d="m 28.991815,29.583721 c 1.075989,1.1387 -0.252438,2.936835 -1.141745,3.511049 -1.519713,0.981404 -3.306175,-0.544757 -3.406781,-2.385766 -0.339895,0.05233 -0.679791,0.104954 -1.019912,0.157295 0.129218,0.975617 -0.527034,1.489067 -1.123517,1.984112 -0.913077,0.757809 -1.873456,0.743868 -2.833837,0.09784 -1.220891,-0.821211 -1.456027,-2.184547 -0.812003,-3.557344 0.315663,-0.67286 -0.580799,-1.270743 -0.896693,-0.597631 -1.061448,2.262666 -0.294899,4.735236 1.905295,5.59643 2.09382,0.819629 5.130712,-1.050844 4.762202,-3.838005 -0.08768,-0.661809 -1.056136,-0.503199 -1.019906,0.157295 0.142828,2.610928 2.481706,4.701824 4.701052,3.54735 1.606248,-0.835411 3.307795,-3.723325 1.620088,-5.509626 -0.489878,-0.518448 -1.225965,0.316439 -0.734243,0.836993"
         style="fill:#4b2618;fill-opacity:1;fill-rule:nonzero;stroke:none;stroke-width:0.02463659"
         id="path198"
         inkscape:connector-curvature="0" />
      <path
         d="m 10.414656,22.403531 c -0.371508,1.087673 -0.4698081,2.58621 -0.09,3.690972 0.253133,0.735988 0.872692,1.222872 1.485566,0.651815 0.236054,-0.219907 0.387199,-0.536337 0.500495,-0.859088 0.272979,-0.776756 0.351662,-1.638475 0.236747,-2.463892 -0.08514,-0.6113 -0.261204,-2.074332 -0.939147,-2.133246 -0.201679,-0.01764 -0.898079,0.247255 -1.193665,1.113439"
         style="fill:#4b2618;fill-opacity:1;fill-rule:nonzero;stroke:none;stroke-width:0.02463659"
         id="path200"
         inkscape:connector-curvature="0" />
      <path
         d="m 9.9139297,22.245979 c -0.4705026,1.527468 -0.6382115,3.709641 0.4633393,4.947239 1.208207,1.357807 2.348802,-0.675484 2.620392,-1.832331 0.260056,-1.106869 0.191518,-3.329817 -0.601332,-4.217047 -0.870154,-0.97351 -1.994596,-0.07499 -2.4300226,0.960883 -0.2879746,0.684689 0.6073306,1.285477 0.8964616,0.597359 0.205366,-0.488459 0.660863,-1.184464 0.93684,-0.395082 0.196831,0.56317 0.256826,1.232075 0.279671,1.829966 0.01637,0.427961 -0.06784,0.84567 -0.164061,1.255226 -0.06715,0.617346 -0.410738,0.839617 -1.030761,0.666274 -0.105226,-0.24121 -0.178364,-0.493987 -0.220131,-0.758075 -0.189676,-0.89644 -0.01087,-1.890469 0.250825,-2.739556 0.222438,-0.722306 -0.780858,-1.030066 -1.0012213,-0.314856"
         style="fill:#4b2618;fill-opacity:1;fill-rule:nonzero;stroke:none;stroke-width:0.02463659"
         id="path202"
         inkscape:connector-curvature="0" />
      <path
         d="m 34.61656,21.650712 c -0.503494,0.871188 -0.455959,2.209273 -0.335278,3.1549 0.06371,0.499251 0.164755,1.01191 0.434272,1.411997 0.269516,0.399813 0.664557,0.915113 1.081756,0.747025 0.449269,-0.180964 0.751316,-1.01585 0.853077,-1.546407 0.202135,-1.055309 0.139834,-2.174546 -0.177215,-3.19251 -0.09877,-0.316173 -0.225675,-0.629972 -0.433578,-0.867767 -0.32005,-0.365883 -0.761244,-0.452163 -1.113825,-0.109163 -0.120913,0.117317 -0.223137,0.252778 -0.309209,0.40192"
         style="fill:#4b2618;fill-opacity:1;fill-rule:nonzero;stroke:none;stroke-width:0.02463659"
         id="path204"
         inkscape:connector-curvature="0" />
      <path
         d="m 34.168217,21.351903 c -0.622102,1.265222 -0.769086,3.558928 -0.07361,4.845186 0.681404,1.259958 1.752543,1.933077 2.643462,0.548704 0.836005,-1.299417 0.717172,-3.781723 0.07338,-5.131376 -0.653477,-1.369907 -1.822454,-1.496429 -2.643231,-0.262514 -0.404965,0.608675 0.497496,1.197356 0.896462,0.597366 0.779472,-1.17132 1.142438,1.506423 1.172664,1.858633 0.06899,0.803846 -0.05286,1.634793 -0.395967,2.340525 -0.508569,0.0868 -0.815002,-0.165456 -0.919532,-0.757025 -0.129218,-0.370889 -0.148139,-0.800433 -0.181139,-1.193415 -0.06507,-0.774915 -0.01451,-1.560082 0.323974,-2.248718 0.327891,-0.666548 -0.569258,-1.263122 -0.896462,-0.597366"
         style="fill:#4b2618;fill-opacity:1;fill-rule:nonzero;stroke:none;stroke-width:0.02463659"
         id="path206"
         inkscape:connector-curvature="0" />
      <path
         d="m 46.436696,29.613445 c -0.428734,-5.059303 -1.880143,-10.029954 -4.376622,-14.257524 0,0.19912 0,0.398241 0,0.597362 0.198211,-0.405081 0.139836,-0.989555 0.137292,-1.43304 -0.0066,-1.159214 -0.07752,-2.319218 -0.148603,-3.475014 C 41.885627,8.3895837 41.758714,5.5992622 41.193383,3.0070089 40.972088,1.9922026 40.209925,1.3298694 39.310926,1.6197385 38.42785,1.9046107 37.628532,3.3702663 37.062043,4.1199283 c -0.7947,1.0518944 -1.565405,2.1282521 -2.319032,3.2188136 -0.350507,0.5068764 -0.826544,1.0490004 -1.029605,1.6618824 0.212984,-0.1375695 0.425967,-0.2754022 0.638719,-0.4132348 -6.35184,-2.70878 -13.801809,-2.751129 -20.250562,-0.4274387 0.19545,0.090748 0.390892,0.1812343 0.586336,0.2719826 C 13.793056,6.9562822 12.936742,5.4443318 12.019979,3.9870935 11.495943,3.1535214 10.350738,1.6234212 9.3121343,1.7404741 7.2084371,1.9777357 7.1997855,5.7839153 6.9272244,7.5852094 6.5853256,9.8434025 6.246418,12.120009 6.0552472,14.402664 c -0.016761,0.200174 -0.041678,0.419812 6.42e-4,0.61867 -0.071479,-0.335376 -0.8561915,1.152113 -0.9695841,1.365175 -0.7184815,1.349918 -1.3104949,2.779798 -1.8459938,4.234145 -1.8792689,5.103226 -3.12503853,11.984866 -0.4887288,17.043112 2.3910498,4.587935 7.8355995,7.061297 12.1399995,8.336771 3.058812,0.906434 6.345372,1.035846 9.490486,1.037953 3.397089,0.0023 6.821642,-0.394033 10.108203,-1.396475 6.596199,-2.011987 12.479387,-7.592635 11.946355,-16.02857 -0.04797,-0.756768 -1.0866,-0.762023 -1.038372,0 C 46.296559,43.828881 30.815362,46.259103 21.641924,45.781688 16.546743,45.516543 11.710012,44.208448 7.3585419,41.057237 5.1825494,39.481366 3.4412903,37.434658 2.7253454,34.561742 1.957737,31.481554 2.3584098,28.088341 3.032704,25.040768 3.6852188,22.092356 4.7675722,19.267312 6.1492745,16.67138 6.5168596,15.980638 7.0554023,15.197306 7.0771431,14.647292 7.1106654,13.797149 7.2427275,12.942533 7.3475584,12.101334 7.651661,9.6600645 8.0017555,7.2219521 8.4324235,4.8054091 8.5405967,4.1985774 8.6158433,3.5938495 8.9732543,3.0924964 c 0.53864,-0.756238 1.9007537,1.1221262 2.1501917,1.4919594 0.95415,1.4151518 1.777233,2.9762912 2.66792,4.44484 0.129681,0.2141141 0.352818,0.356155 0.586335,0.2719826 6.288847,-2.2660846 13.505299,-2.2134762 19.698377,0.4274388 0.282669,0.1207358 0.545955,-0.1333605 0.638711,-0.413235 0.05838,-0.1770252 0.566034,-0.8532992 0.7624,-1.1397495 0.56787,-0.8283111 1.153975,-1.6408396 1.74539,-2.4475814 0.539025,-0.734932 1.08936,-1.4593428 1.655394,-2.1674447 0.447418,-0.5594848 1.161821,-0.9366835 1.398799,0.1494064 0.09369,0.4300696 0.134299,0.8843383 0.191757,1.3220357 0.275515,2.0958986 0.431496,4.2165222 0.561409,6.3300433 0.05607,0.912221 0.09875,1.825758 0.122074,2.739819 0.0071,0.277769 0.03346,1.208667 0.01136,1.25391 -0.08653,0.176761 -0.103377,0.422176 0,0.597362 2.391255,4.048968 3.823749,8.808397 4.234943,13.660162 0.06371,0.752554 1.102753,0.759658 1.038371,0"
         style="fill:#4b2618;fill-opacity:1;fill-rule:nonzero;stroke:none;stroke-width:0.02463659"
         id="path208"
         inkscape:connector-curvature="0" />
      <path
         d="M 6.8124705,15.471394 C 8.1311799,13.559887 9.7339459,12.021896 11.61732,10.87741 12.208266,10.518098 11.683778,9.4964534 11.093053,9.8552394 9.1394407,11.0426 7.4472199,12.650033 6.0783169,14.634403 c -0.4089522,0.592891 0.3205127,1.436721 0.7341536,0.836991"
         style="fill:#4b2618;fill-opacity:1;fill-rule:nonzero;stroke:none;stroke-width:0.02463659"
         id="path210"
         inkscape:connector-curvature="0" />
      <path
         d="M 41.978846,15.235974 C 40.694729,13.347088 39.044872,11.8475 37.26764,10.599378 c -0.571794,-0.401661 -1.092829,0.622352 -0.524028,1.021908 1.707771,1.199722 3.26764,2.637233 4.500991,4.451679 0.409583,0.602887 1.138983,-0.24147 0.734243,-0.836991"
         style="fill:#4b2618;fill-opacity:1;fill-rule:nonzero;stroke:none;stroke-width:0.02463659"
         id="path212"
         inkscape:connector-curvature="0" />
      <path
         d="m 21.650756,28.374532 c -0.128524,-0.188075 -0.07245,-0.355372 0.132455,-0.403502 1.407106,-0.330904 4.372698,0.01244 4.487382,0.358255 0.114681,0.345638 -0.169605,0.383772 -0.422735,0.614722 -0.381425,0.347737 -0.774392,0.679166 -1.178207,0.992714 -0.205366,0.159661 -0.429884,0.320644 -0.67863,0.319329 -0.16268,-5.93e-4 -0.318437,-0.07157 -0.466577,-0.148093 -0.667787,-0.346161 -1.873688,-1.733425 -1.873688,-1.733425"
         style="fill:#4b2618;fill-opacity:1;fill-rule:nonzero;stroke:none;stroke-width:0.02463659"
         id="path214"
         inkscape:connector-curvature="0" />
      <path
         d="m 22.098874,28.075716 c -0.126218,0.399555 -0.04271,0.53134 0.250595,0.39614 0.217364,-0.02632 0.436808,-0.0321 0.655096,-0.04 0.38858,-0.01369 0.777623,0.0053 1.165516,0.02867 0.37497,0.02259 0.749702,0.06625 1.120979,0.130203 0.156907,0.02707 0.311514,0.06579 0.465884,0.107316 0.514567,0.139147 -0.45758,-0.05606 0.01778,-0.410081 -0.690632,0.514508 -1.451639,1.7066 -2.302415,1.103978 -0.535795,-0.379825 -1.009759,-0.928261 -1.454409,-1.435933 -0.473501,-0.540808 -1.207745,0.296185 -0.73425,0.836994 0.668482,0.763339 1.67524,2.05486 2.707388,2.05486 0.742548,0 1.450027,-0.790696 1.99367,-1.27863 0.356737,-0.320386 1.184437,-0.851725 0.734244,-1.538778 -0.563721,-0.859354 -2.194656,-0.7423 -3.015895,-0.777812 -0.820771,-0.03552 -3.127112,-0.206748 -2.500628,1.420416 0.268359,0.69758 1.162978,0.09469 0.896462,-0.597364"
         style="fill:#4b2618;fill-opacity:1;fill-rule:nonzero;stroke:none;stroke-width:0.02463659"
         id="path216"
         inkscape:connector-curvature="0" />
      <path
         d="m 37.163111,30.684012 c 1.227815,-0.238312 2.455636,-0.476624 3.683452,-0.714936 0.32951,-0.06388 0.189212,-0.634192 -0.138217,-0.570533 -1.227821,0.238312 -2.455637,0.476367 -3.683451,0.714678 -0.329511,0.06388 -0.189214,0.634185 0.138216,0.570791"
         style="fill:#4b2618;fill-opacity:1;fill-rule:nonzero;stroke:none;stroke-width:0.02463659"
         id="path218"
         inkscape:connector-curvature="0" />
      <path
         d="m 37.019814,33.269162 c 1.066528,0.184654 2.109049,0.469269 3.133347,0.855407 0.318894,0.119942 0.454342,-0.451639 0.137986,-0.570798 -1.024293,-0.385871 -2.066819,-0.670488 -3.13311,-0.855399 -0.327436,-0.05658 -0.468189,0.51345 -0.138223,0.57079"
         style="fill:#4b2618;fill-opacity:1;fill-rule:nonzero;stroke:none;stroke-width:0.02463659"
         id="path220"
         inkscape:connector-curvature="0" />
      <path
         d="m 36.939054,36.051593 c 0.635482,0.497676 1.253892,1.021387 1.853843,1.573506 0.257974,0.237263 0.627632,-0.178606 0.367115,-0.418494 -0.634325,-0.583948 -1.286884,-1.139748 -1.959059,-1.665832 -0.276664,-0.216742 -0.536032,0.296451 -0.261899,0.51082"
         style="fill:#4b2618;fill-opacity:1;fill-rule:nonzero;stroke:none;stroke-width:0.02463659"
         id="path222"
         inkscape:connector-curvature="0" />
      <path
         d="m 6.2259562,29.969076 c 1.1754827,0.38588 2.3619489,0.715993 3.5610609,0.991133 0.3269719,0.07499 0.4661139,-0.495305 0.1379847,-0.570534 C 8.7258899,30.114537 7.5394237,29.784157 6.3639672,29.398543 6.041541,29.292798 5.9047952,29.863858 6.2259562,29.969076"
         style="fill:#4b2618;fill-opacity:1;fill-rule:nonzero;stroke:none;stroke-width:0.02463659"
         id="path224"
         inkscape:connector-curvature="0" />
      <path
         d="M 6.4841167,34.395761 C 7.592887,34.020142 8.7017336,33.644782 9.8105489,33.269162 10.130599,33.160791 9.9942259,32.589472 9.6725641,32.698372 8.5637425,33.07399 7.454876,33.44961 6.3460158,33.82497 c -0.3201656,0.108371 -0.183702,0.67969 0.1381009,0.570791"
         style="fill:#4b2618;fill-opacity:1;fill-rule:nonzero;stroke:none;stroke-width:0.02463659"
         id="path226"
         inkscape:connector-curvature="0" />
      <path
         d="m 9.6859493,38.060164 c 0.6710177,-0.667589 1.3911817,-1.251539 2.1618877,-1.759734 0.289593,-0.190966 0.02839,-0.702576 -0.261898,-0.511085 -0.808548,0.53318 -1.563563,1.152116 -2.2670477,1.852327 -0.2526426,0.251203 0.1160041,0.668121 0.367058,0.418492"
         style="fill:#4b2618;fill-opacity:1;fill-rule:nonzero;stroke:none;stroke-width:0.02463659"
         id="path228"
         inkscape:connector-curvature="0" />
      <path
         d="m 11.948442,15.646579 c 0.670331,-0.280401 1.340887,-0.560801 2.011212,-0.841201 0.623253,-0.260672 0.353968,-1.404893 -0.275977,-1.141327 -0.670556,0.2804 -1.340881,0.560799 -2.011212,0.841199 -0.623253,0.260672 -0.354199,1.404894 0.275977,1.141329"
         style="fill:#4b2618;fill-opacity:1;fill-rule:nonzero;stroke:none;stroke-width:0.02463659"
         id="path230"
         inkscape:connector-curvature="0" />
      <path
         d="m 33.526962,14.645714 c 0.487804,0.112052 0.937997,0.331429 1.321503,0.698632 0.509032,0.487149 1.247662,-0.345634 0.734244,-0.836992 -0.519649,-0.497407 -1.111751,-0.849616 -1.77977,-1.002969 -0.653715,-0.150195 -0.932223,0.990607 -0.275977,1.141329"
         style="fill:#4b2618;fill-opacity:1;fill-rule:nonzero;stroke:none;stroke-width:0.02463659"
         id="path232"
         inkscape:connector-curvature="0" />
    </g>
  </g>
</svg>
