<?xml version="1.0" encoding="UTF-8" standalone="no"?>
<!-- Created with Inkscape (http://www.inkscape.org/) -->

<svg
   xmlns:dc="http://purl.org/dc/elements/1.1/"
   xmlns:cc="http://creativecommons.org/ns#"
   xmlns:rdf="http://www.w3.org/1999/02/22-rdf-syntax-ns#"
   xmlns:svg="http://www.w3.org/2000/svg"
   xmlns="http://www.w3.org/2000/svg"
   xmlns:sodipodi="http://sodipodi.sourceforge.net/DTD/sodipodi-0.dtd"
   xmlns:inkscape="http://www.inkscape.org/namespaces/inkscape"
   width="32px"
   height="32px"
   viewBox="0 0 32 32"
   version="1.1"
   id="SVGRoot"
   inkscape:version="0.92.3 (2405546, 2018-03-11)"
   sodipodi:docname="org.cattus.icon32.svg">
  <sodipodi:namedview
     id="base"
     pagecolor="#ffffff"
     bordercolor="#666666"
     borderopacity="1.0"
     inkscape:pageopacity="0.0"
     inkscape:pageshadow="2"
     inkscape:zoom="4"
     inkscape:cx="15.033378"
     inkscape:cy="-22.466099"
     inkscape:document-units="px"
     inkscape:current-layer="layer1"
     showgrid="false"
     inkscape:window-width="1366"
     inkscape:window-height="717"
     inkscape:window-x="0"
     inkscape:window-y="19"
     inkscape:window-maximized="1"
     inkscape:grid-bbox="true" />
  <defs
     id="defs4178" />
  <metadata
     id="metadata4181">
    <rdf:RDF>
      <cc:Work
         rdf:about="">
        <dc:format>image/svg+xml</dc:format>
        <dc:type
           rdf:resource="http://purl.org/dc/dcmitype/StillImage" />
        <dc:title></dc:title>
      </cc:Work>
    </rdf:RDF>
  </metadata>
  <g
     id="layer1"
     inkscape:groupmode="layer"
     inkscape:label="Layer 1">
    <g
       id="g4804">
      <path
         d="M 27.138661,2.0027635 C 26.98674,1.065592 26.266704,0.9613236 25.738775,1.5933519 24.699066,2.8381613 23.709886,3.811692 22.955601,5.3120922 c -0.314807,0.6265043 -0.112803,1.224846 0.267161,1.5670609 0.02407,0.1158538 0.06044,0.2276098 0.115688,0.3276002 0.763574,1.3800906 1.773451,2.4956764 3.02415,3.2530057 0.724298,0.438642 1.345234,-0.01355 1.370502,-0.9877906 0.06668,-2.5692876 -0.185565,-4.9442976 -0.594446,-7.4692049"
         style="fill:#efba3d;fill-opacity:1;fill-rule:nonzero;stroke:none;stroke-width:0.01647197"
         id="path192"
         inkscape:connector-curvature="0" />
      <path
         d="M 10.568244,7.0983848 C 9.9133624,5.9890369 9.2584734,4.8798668 8.6037458,3.7705201 8.0239115,2.7884335 7.5593131,1.6789066 6.5693776,1.2267189 6.0455479,0.98734593 5.6827593,1.6136711 5.5648292,2.2276983 5.1240231,4.5226802 4.7023083,6.9078492 4.6118081,9.2577273 4.5690021,10.369928 5.4220091,10.529094 6.0671793,10.103998 6.370752,9.9041938 6.7214536,9.8200655 7.0697494,9.8287993 8.1327541,9.8555366 9.3889369,9.25452 10.186002,8.8053618 10.681803,8.5260643 10.879696,7.6259669 10.568244,7.0983848"
         style="fill:#efba3d;fill-opacity:1;fill-rule:nonzero;stroke:none;stroke-width:0.01647197"
         id="path194"
         inkscape:connector-curvature="0" />
      <path
         d="M 30.52953,19.661607 C 30.15185,14.641737 27.966021,9.3824939 25.283008,7.2787614 19.703262,2.9033956 9.5216766,3.9205953 5.9057413,7.8664082 2.8435953,11.208 0.04557793,19.78067 2.1826534,24.573823 c 1.5078277,3.381693 6.674552,5.767396 9.6379666,6.180194 6.536341,0.910438 15.441344,0.186975 18.145364,-6.86979 0.507069,-1.323058 0.671781,-2.782999 0.563546,-4.22262"
         style="fill:#efba3d;fill-opacity:1;fill-rule:nonzero;stroke:none;stroke-width:0.01647197"
         id="path196"
         inkscape:connector-curvature="0" />
      <path
         d="m 19.363489,19.641465 c 0.709836,0.771589 -0.166537,1.990019 -0.753219,2.379111 -1.002575,0.665005 -2.181117,-0.369128 -2.247487,-1.616609 -0.224236,0.03547 -0.448465,0.07112 -0.672848,0.106579 0.08525,0.661085 -0.347687,1.009006 -0.741193,1.344443 -0.602365,0.513505 -1.235938,0.504056 -1.869505,0.06631 -0.80544,-0.556457 -0.960556,-1.480259 -0.535693,-2.410476 0.208249,-0.45593 -0.383157,-0.861069 -0.591554,-0.404955 -0.700246,1.533194 -0.194545,3.208621 1.25694,3.792168 1.381314,0.555391 3.384781,-0.712053 3.141672,-2.600656 -0.05786,-0.448441 -0.696742,-0.340965 -0.672843,0.106591 0.09423,1.769183 1.637203,3.185986 3.101331,2.403706 1.059656,-0.566085 2.182179,-2.522947 1.068785,-3.733357 -0.323176,-0.351302 -0.808783,0.21442 -0.484386,0.567149"
         style="fill:#4b2618;fill-opacity:1;fill-rule:nonzero;stroke:none;stroke-width:0.01647197"
         id="path198"
         inkscape:connector-curvature="0" />
      <path
         d="m 7.1079591,14.776128 c -0.2450868,0.737011 -0.3099352,1.752428 -0.059375,2.501024 0.166994,0.498708 0.5757245,0.828625 0.9800401,0.441672 0.155729,-0.149006 0.255438,-0.363426 0.3301818,-0.582123 C 8.5388915,16.610367 8.5908004,16.026462 8.514992,15.467153 8.4588202,15.05293 8.3426694,14.061575 7.8954253,14.02165 7.7623794,14.009713 7.3029565,14.189193 7.1079532,14.776128"
         style="fill:#4b2618;fill-opacity:1;fill-rule:nonzero;stroke:none;stroke-width:0.01647197"
         id="path200"
         inkscape:connector-curvature="0" />
      <path
         d="M 6.7776254,14.669365 C 6.4672332,15.704387 6.3565948,17.183042 7.0832977,18.021646 7.8803614,18.94171 8.6328221,17.563935 8.8119936,16.780048 8.9835531,16.030026 8.9383425,14.523744 8.4152888,13.92255 7.841239,13.262895 7.0994344,13.87175 6.8121811,14.573651 c -0.1899797,0.463951 0.4006627,0.871046 0.591403,0.404777 0.1354836,-0.330987 0.4359803,-0.802602 0.6180441,-0.267713 0.1298498,0.381606 0.1694292,0.834862 0.1845002,1.239996 0.010834,0.289991 -0.044761,0.573032 -0.1082338,0.850549 -0.044301,0.418322 -0.2709659,0.568933 -0.6800002,0.451473 C 7.3484745,17.08929 7.300228,16.918004 7.2726697,16.739053 7.1475373,16.131621 7.2654863,15.458064 7.4381398,14.882714 7.5848871,14.393274 6.923002,14.184736 6.7776254,14.669365"
         style="fill:#4b2618;fill-opacity:1;fill-rule:nonzero;stroke:none;stroke-width:0.01647197"
         id="path202"
         inkscape:connector-curvature="0" />
      <path
         d="m 23.074185,14.266013 c -0.332157,0.590322 -0.300799,1.497014 -0.221183,2.137776 0.04203,0.338295 0.108693,0.68568 0.286492,0.956778 0.177799,0.27092 0.438412,0.620086 0.713641,0.506195 0.29639,-0.12263 0.495654,-0.688354 0.562788,-1.047858 0.13335,-0.715089 0.09225,-1.473486 -0.116913,-2.163264 -0.06516,-0.214242 -0.148878,-0.426878 -0.286034,-0.588006 -0.211141,-0.247926 -0.502197,-0.306388 -0.734803,-0.07397 -0.07976,0.0795 -0.147202,0.171285 -0.203987,0.272346"
         style="fill:#4b2618;fill-opacity:1;fill-rule:nonzero;stroke:none;stroke-width:0.01647197"
         id="path204"
         inkscape:connector-curvature="0" />
      <path
         d="m 22.778412,14.063536 c -0.410405,0.85732 -0.507378,2.411549 -0.04854,3.283128 0.449525,0.853758 1.156166,1.309866 1.74392,0.371806 0.55152,-0.880496 0.473123,-2.562517 0.04842,-3.477054 -0.43111,-0.928259 -1.202294,-1.013991 -1.743767,-0.17788 -0.267162,0.412441 0.328203,0.811336 0.591399,0.404777 0.514224,-0.793691 0.753681,1.020764 0.773622,1.259423 0.04553,0.544693 -0.03486,1.107745 -0.261223,1.585955 -0.335506,0.05882 -0.537668,-0.112106 -0.606627,-0.512967 -0.08525,-0.251314 -0.09773,-0.542376 -0.119498,-0.808663 -0.04291,-0.525087 -0.0097,-1.057123 0.213726,-1.523748 0.216317,-0.451654 -0.375545,-0.855895 -0.591399,-0.404777"
         style="fill:#4b2618;fill-opacity:1;fill-rule:nonzero;stroke:none;stroke-width:0.01647197"
         id="path206"
         inkscape:connector-curvature="0" />
      <path
         d="m 30.872041,19.661607 c -0.28284,-3.428211 -1.240347,-6.796359 -2.887301,-9.660987 0,0.134926 0,0.269851 0,0.404777 0.130765,-0.274485 0.09225,-0.670528 0.09058,-0.9710363 C 28.0712,8.6488697 28.024166,7.862844 27.977286,7.0796698 27.869664,5.2801877 27.785937,3.389449 27.412981,1.6329208 27.266994,0.94528241 26.764186,0.49648108 26.171109,0.69289769 25.58853,0.88592915 25.061218,1.8790676 24.687498,2.387042 24.163228,3.0998122 23.654788,3.8291596 23.157611,4.5681312 22.926377,4.9115935 22.612334,5.2789404 22.478373,5.6942329 22.618878,5.6010104 22.759381,5.5076184 22.899738,5.4142228 18.709369,3.578736 13.794553,3.5500399 9.540251,5.1245873 9.6691906,5.1860831 9.7981243,5.2473927 9.9270639,5.3088838 9.3367253,4.3089738 8.771809,3.2844668 8.1670083,2.2970327 7.8212997,1.7321998 7.065795,0.69539357 6.3806191,0.77470908 4.9927918,0.93547912 4.9870828,3.5145712 4.8072718,4.735138 4.5817167,6.265305 4.35814,7.8079465 4.2320196,9.3546894 4.2209501,9.4903276 4.2045461,9.6391554 4.2324871,9.7739031 4.185324,9.5466502 3.6676473,10.554581 3.5928434,10.698953 c -0.473991,0.914714 -0.8645463,1.883611 -1.217821,2.869084 -1.2397705,3.457978 -2.06161687,8.121016 -0.3224179,11.548518 1.5773971,3.108811 5.1692197,4.784776 8.0088705,5.649049 2.01793,0.614204 4.186107,0.701901 6.260969,0.703321 2.241091,0.0019 4.500298,-0.266999 6.668476,-0.946258 4.351571,-1.363335 8.232765,-5.144817 7.881119,-10.86106 -0.03165,-0.512787 -0.716836,-0.516353 -0.685023,0 0.592621,9.632469 -9.620471,11.279207 -15.672278,10.955705 C 11.153406,30.437648 7.9625642,29.551273 5.0918579,27.415995 3.6563364,26.348172 2.5076137,24.961308 2.0352972,23.014604 1.5288973,20.927447 1.793225,18.62819 2.2380633,16.563134 2.6685324,14.565274 3.3825713,12.651006 4.2940947,10.891985 4.5365932,10.423934 4.8918769,9.8931432 4.9062166,9.5204501 4.9283438,8.9443875 5.0154513,8.3652942 5.0846121,7.7952917 5.2852326,6.1410731 5.5161917,4.4889936 5.8003091,2.8515288 5.871672,2.4403364 5.9213152,2.0305679 6.1571001,1.6908488 6.512445,1.1784163 7.4110443,2.4512079 7.5756017,2.7018094 8.2050615,3.6607253 8.7480579,4.7185632 9.3356525,5.7136604 9.4212056,5.858745 9.5684122,5.9549945 9.7224666,5.8979581 13.871272,4.3624449 18.632039,4.3980927 22.717671,6.1875925 c 0.186477,0.081811 0.360169,-0.09037 0.421364,-0.2800101 0.03853,-0.1199539 0.373417,-0.5782016 0.502962,-0.7723014 0.374633,-0.5612688 0.761286,-1.1118426 1.151449,-1.6584965 0.355599,-0.4979944 0.718661,-0.9888593 1.092079,-1.4686735 0.295169,-0.3791113 0.766467,-0.6347021 0.922803,0.1012437 0.0618,0.2914176 0.08859,0.5992333 0.126503,0.8958206 0.18176,1.420193 0.284667,2.857141 0.370366,4.2892763 0.03699,0.6181262 0.06516,1.2371439 0.08054,1.8565186 0.0047,0.1882176 0.02205,0.8189998 0.0074,0.8496558 -0.05708,0.119776 -0.06821,0.286071 0,0.404777 1.577531,2.743604 2.522562,5.968628 2.793832,9.25621 0.04203,0.509938 0.727493,0.514747 0.685024,0"
         style="fill:#4b2618;fill-opacity:1;fill-rule:nonzero;stroke:none;stroke-width:0.01647197"
         id="path208"
         inkscape:connector-curvature="0" />
      <path
         d="M 4.7315659,10.078866 C 5.6015304,8.7836174 6.6588874,7.7414649 7.9013687,6.9659551 8.2912233,6.7224832 7.945211,6.03021 7.555507,6.273325 6.2666881,7.0778878 5.1503131,8.1670943 4.247239,9.5117163 3.977446,9.9134623 4.4586828,10.485247 4.7315659,10.078866"
         style="fill:#4b2618;fill-opacity:1;fill-rule:nonzero;stroke:none;stroke-width:0.01647197"
         id="path210"
         inkscape:connector-curvature="0" />
      <path
         d="M 27.931155,9.9193445 C 27.084011,8.6394233 25.995582,7.6232932 24.823126,6.7775585 24.44591,6.5053905 24.102177,7.199268 24.47742,7.4700096 c 1.126637,0.8129397 2.155695,1.7870051 2.96935,3.0164854 0.270202,0.408519 0.751393,-0.163622 0.484385,-0.5671505"
         style="fill:#4b2618;fill-opacity:1;fill-rule:nonzero;stroke:none;stroke-width:0.01647197"
         id="path212"
         inkscape:connector-curvature="0" />
      <path
         d="m 14.520526,18.822114 c -0.08479,-0.127441 -0.04777,-0.2408 0.08738,-0.273416 0.928286,-0.224224 2.884712,0.0084 2.96037,0.242754 0.07566,0.234205 -0.111885,0.260051 -0.278881,0.416542 -0.251632,0.235626 -0.510875,0.460206 -0.777273,0.672665 -0.135483,0.108191 -0.283604,0.217276 -0.447705,0.21638 -0.107316,-3.99e-4 -0.21007,-0.04848 -0.307802,-0.100348 -0.440544,-0.234562 -1.236085,-1.174582 -1.236085,-1.174582"
         style="fill:#4b2618;fill-opacity:1;fill-rule:nonzero;stroke:none;stroke-width:0.01647197"
         id="path214"
         inkscape:connector-curvature="0" />
      <path
         d="m 14.816151,18.619636 c -0.08327,0.270738 -0.02816,0.360034 0.165317,0.268422 0.143403,-0.01783 0.288169,-0.02177 0.432177,-0.02709 0.256349,-0.0093 0.513003,0.0038 0.768896,0.01942 0.247371,0.01536 0.494592,0.04493 0.739526,0.08823 0.103512,0.01833 0.205505,0.04455 0.307345,0.07272 0.33947,0.09428 -0.301868,-0.03795 0.01178,-0.27787 -0.455619,0.348631 -0.957668,1.156402 -1.518927,0.748059 -0.353471,-0.257374 -0.66615,-0.629001 -0.959487,-0.972994 -0.312372,-0.366456 -0.796762,0.200695 -0.484392,0.56715 0.441003,0.517242 1.105173,1.392385 1.786083,1.392385 0.489868,0 0.956601,-0.535777 1.315248,-0.866412 0.235343,-0.217091 0.781386,-0.577132 0.484385,-1.042687 -0.371888,-0.582298 -1.447833,-0.502984 -1.989608,-0.527046 -0.541478,-0.02405 -2.06299,-0.140093 -1.649692,0.962479 0.177041,0.472688 0.767225,0.06417 0.591405,-0.404771"
         style="fill:#4b2618;fill-opacity:1;fill-rule:nonzero;stroke:none;stroke-width:0.01647197"
         id="path216"
         inkscape:connector-curvature="0" />
      <path
         d="m 24.754173,20.387031 c 0.809997,-0.161478 1.620001,-0.322963 2.430005,-0.484447 0.217383,-0.04328 0.124826,-0.429728 -0.09118,-0.386598 -0.810004,0.161485 -1.620008,0.322791 -2.430011,0.48427 -0.217378,0.04334 -0.124826,0.429735 0.09119,0.386775"
         style="fill:#4b2618;fill-opacity:1;fill-rule:nonzero;stroke:none;stroke-width:0.01647197"
         id="path218"
         inkscape:connector-curvature="0" />
      <path
         d="m 24.659636,22.138745 c 0.703594,0.125123 1.391362,0.317981 2.067097,0.579631 0.210377,0.08128 0.29974,-0.306032 0.09103,-0.386774 -0.675741,-0.261473 -1.363503,-0.45433 -2.066949,-0.579633 -0.216008,-0.03833 -0.308867,0.347921 -0.09118,0.386776"
         style="fill:#4b2618;fill-opacity:1;fill-rule:nonzero;stroke:none;stroke-width:0.01647197"
         id="path220"
         inkscape:connector-curvature="0" />
      <path
         d="m 24.60636,24.024142 c 0.419231,0.337222 0.827199,0.692091 1.222993,1.066211 0.170189,0.160774 0.414061,-0.121024 0.242196,-0.283574 -0.418479,-0.395685 -0.848978,-0.772299 -1.292416,-1.128773 -0.182518,-0.146871 -0.353619,0.200871 -0.172773,0.346136"
         style="fill:#4b2618;fill-opacity:1;fill-rule:nonzero;stroke:none;stroke-width:0.01647197"
         id="path222"
         inkscape:connector-curvature="0" />
      <path
         d="M 4.3446341,19.902584 C 5.120111,20.164057 5.902835,20.387747 6.6939,20.574183 6.9096067,20.624949 7.0013999,20.238561 6.7849289,20.187586 5.9938628,20.00115 5.21114,19.777281 4.4356771,19.515986 4.2229709,19.444333 4.1327604,19.83129 4.3446246,19.902584"
         style="fill:#4b2618;fill-opacity:1;fill-rule:nonzero;stroke:none;stroke-width:0.01647197"
         id="path224"
         inkscape:connector-curvature="0" />
      <path
         d="m 4.5149453,22.902135 c 0.7314687,-0.254519 1.4629833,-0.508866 2.1944814,-0.76339 0.21114,-0.07343 0.1211733,-0.460562 -0.091029,-0.386776 -0.7314981,0.254525 -1.4630281,0.50905 -2.194558,0.763397 -0.2112154,0.07343 -0.1211874,0.460562 0.091111,0.386769"
         style="fill:#4b2618;fill-opacity:1;fill-rule:nonzero;stroke:none;stroke-width:0.01647197"
         id="path226"
         inkscape:connector-curvature="0" />
      <path
         d="m 6.6272239,25.385161 c 0.4426785,-0.45237 0.9177801,-0.848054 1.4262196,-1.192408 0.1910454,-0.1294 0.018724,-0.476071 -0.1727783,-0.346315 -0.5334048,0.361284 -1.0314932,0.780676 -1.4955888,1.255147 -0.1666736,0.170217 0.076521,0.452719 0.2421475,0.283576"
         style="fill:#4b2618;fill-opacity:1;fill-rule:nonzero;stroke:none;stroke-width:0.01647197"
         id="path228"
         inkscape:connector-curvature="0" />
      <path
         d="M 8.1198146,10.197573 C 8.5620362,10.007572 9.0044085,9.8175709 9.4466289,9.62757 9.8577983,9.4509366 9.680147,8.6756046 9.2645676,8.8541991 8.8221929,9.0442 8.3799724,9.2342008 7.9377508,9.4242017 7.526585,9.6008351 7.704082,10.376166 8.1198146,10.197573"
         style="fill:#4b2618;fill-opacity:1;fill-rule:nonzero;stroke:none;stroke-width:0.01647197"
         id="path230"
         inkscape:connector-curvature="0" />
      <path
         d="m 22.35537,9.5193794 c 0.321806,0.075927 0.618801,0.2245791 0.871808,0.4733984 0.335809,0.3300952 0.823093,-0.2342033 0.484386,-0.5671509 C 23.36875,9.0885816 22.978131,8.8499212 22.537431,8.7460085 22.106173,8.6442396 21.922435,9.41725 22.35537,9.5193794"
         style="fill:#4b2618;fill-opacity:1;fill-rule:nonzero;stroke:none;stroke-width:0.01647197"
         id="path232"
         inkscape:connector-curvature="0" />
    </g>
  </g>
</svg>
